<svg width="18" height="18" viewBox="0 0 18 18" fill="none" xmlns="http://www.w3.org/2000/svg">
<path d="M12.1161 17.1601C12.1303 17.1558 12.1438 17.1501 12.1579 17.1452C20.8086 13.7083 18.4156 0.750977 9.03262 0.750977C4.32378 0.750977 0.53418 4.58944 0.53418 9.24942C0.53418 15.1466 6.50717 19.3548 12.1161 17.1601ZM4.2742 14.9568C4.87759 13.9427 6.83011 11.0815 10.1629 10.0943C10.8598 11.8712 11.3484 13.9441 11.3966 16.2946C8.87115 17.1438 6.2076 16.5722 4.2742 14.9568ZM12.4412 15.8513C12.3484 13.5928 11.8874 11.59 11.2302 9.85493C12.7047 9.62477 14.4114 9.77845 16.3469 10.5539C15.9355 12.8634 14.4589 14.8046 12.4412 15.8513ZM16.4581 9.45551C14.3264 8.65453 12.4476 8.55467 10.8215 8.86487C10.5701 8.2983 10.306 7.75369 10.0262 7.25229C12.5212 6.25584 13.9957 5.04127 14.6558 4.39823C15.8208 5.74664 16.5127 7.49237 16.4581 9.45551ZM13.9015 3.64186C13.301 4.21338 11.8867 5.36776 9.46817 6.31179C8.28263 4.43647 7.01495 3.11354 6.21185 2.37276C8.78121 1.31471 11.7443 1.76654 13.9015 3.64186ZM5.19628 2.89188C5.80251 3.42515 7.13322 4.70559 8.41719 6.68572C6.65377 7.2537 4.44275 7.67083 1.75371 7.72962C2.18146 5.68007 3.45906 3.94356 5.19628 2.89188ZM1.61915 8.79617C4.62901 8.7473 7.06523 8.2721 8.99084 7.62905C9.25712 8.09576 9.50995 8.60425 9.75286 9.13257C6.39952 10.2005 4.30395 12.9576 3.50155 14.2026C2.20696 12.7579 1.49309 10.8726 1.61915 8.79617Z" fill="#828282"/>
</svg>
