<svg width="21" height="14" viewBox="0 0 21 14" fill="none" xmlns="http://www.w3.org/2000/svg">
<path d="M10.8963 9.84861C10.8963 8.21961 10.1329 7.01549 8.55565 6.56417C9.70645 6.00795 10.3066 5.16524 10.3066 3.85446C10.3066 1.26992 8.40278 0.639648 6.20627 0.639648H0.158691V13.6161H6.37563C8.70677 13.6161 10.8963 12.4852 10.8963 9.84861ZM2.97794 2.85484H5.62349C6.64054 2.85484 7.55597 3.14397 7.55597 4.33751C7.55597 5.43938 6.84377 5.88277 5.83628 5.88277H2.97794V2.85484ZM2.97707 11.4124V7.83881H6.04993C7.29107 7.83881 8.07622 8.36242 8.07622 9.69171C8.07622 11.0025 7.13907 11.4124 5.99174 11.4124H2.97707Z" fill="#828282"/>
<path d="M16.4836 13.8618C18.7018 13.8618 20.1383 12.8507 20.8297 10.7016H18.5785C18.3361 11.5038 17.3373 11.9278 16.5626 11.9278C15.0679 11.9278 14.2827 11.0419 14.2827 9.5363H20.9817C21.1936 6.52336 19.5399 3.95557 16.4827 3.95557C13.6521 3.95557 11.731 6.10817 11.731 8.92807C11.731 11.8546 13.5514 13.8618 16.4836 13.8618ZM16.4037 5.90543C17.6847 5.90543 18.3292 6.66704 18.4369 7.91259H14.2862C14.3704 6.67762 15.1808 5.90543 16.4037 5.90543Z" fill="#828282"/>
<path d="M13.7659 1.3208H18.9666V2.59897H13.7659V1.3208Z" fill="#828282"/>
</svg>
