<svg width="462" height="376" viewBox="0 0 462 376" fill="none" xmlns="http://www.w3.org/2000/svg">
<g id="Illustration 5">
<g id="Background">
<g id="Background Object / Closet / 3">
<g id="Group 55">
<path id="Fill 1" fill-rule="evenodd" clip-rule="evenodd" d="M343.679 116.049H343.256C337.419 116.049 332.686 111.317 332.686 105.479V99.1921H354.249V105.479C354.249 111.317 349.516 116.049 343.679 116.049Z" fill="#DCEEFF"/>
<path id="Fill 4" fill-rule="evenodd" clip-rule="evenodd" d="M265.643 286.964H260.764V275.153H268.16L265.643 286.964Z" fill="#B6D4FF"/>
<path id="Fill 6" fill-rule="evenodd" clip-rule="evenodd" d="M255.884 275.153H340.626V119.153H255.884V275.153Z" fill="#ECF6FF"/>
<path id="Fill 8" fill-rule="evenodd" clip-rule="evenodd" d="M260.764 286.964H255.885V275.153H263.052L260.764 286.964Z" fill="#ECF6FF"/>
<path id="Fill 9" fill-rule="evenodd" clip-rule="evenodd" d="M344.549 286.964H340.626V275.153H346.389L344.549 286.964Z" fill="#CCE3FF"/>
<path id="Fill 10" fill-rule="evenodd" clip-rule="evenodd" d="M335.747 286.964H340.626V275.153H333.459L335.747 286.964Z" fill="#ECF6FF"/>
<path id="Fill 11" fill-rule="evenodd" clip-rule="evenodd" d="M295.346 286.964H290.466V275.153H297.176L295.346 286.964Z" fill="#B6D4FF"/>
<path id="Fill 12" fill-rule="evenodd" clip-rule="evenodd" d="M365.836 286.964H361.342L359.656 275.153H365.836V286.964Z" fill="#B6D4FF"/>
<path id="Fill 13" fill-rule="evenodd" clip-rule="evenodd" d="M370.329 286.964H365.836L364.36 275.153H370.329V286.964Z" fill="#CCE3FF"/>
<path id="Fill 14" fill-rule="evenodd" clip-rule="evenodd" d="M290.466 286.964H285.587L283.757 275.153H290.466V286.964Z" fill="#C5E0FC"/>
<path id="Fill 15" fill-rule="evenodd" clip-rule="evenodd" d="M259.468 208.783H337.043V181.213H259.468V208.783Z" fill="#B6D4FF"/>
<path id="Fill 16" fill-rule="evenodd" clip-rule="evenodd" d="M259.468 208.783H283.467V181.213H259.468V208.783Z" fill="#CCE3FF"/>
<path id="Fill 17" fill-rule="evenodd" clip-rule="evenodd" d="M259.468 239.007H337.043V211.437H259.468V239.007Z" fill="#B6D4FF"/>
<path id="Fill 18" fill-rule="evenodd" clip-rule="evenodd" d="M259.468 239.007H283.467V211.437H259.468V239.007Z" fill="#CCE3FF"/>
<path id="Fill 19" fill-rule="evenodd" clip-rule="evenodd" d="M259.468 269.231H337.043V241.661H259.468V269.231Z" fill="#B6D4FF"/>
<path id="Fill 20" fill-rule="evenodd" clip-rule="evenodd" d="M259.468 269.231H283.467V241.661H259.468V269.231Z" fill="#CCE3FF"/>
<path id="Fill 21" fill-rule="evenodd" clip-rule="evenodd" d="M259.468 149.419H337.043V121.849H259.468V149.419Z" fill="#B6D4FF"/>
<path id="Fill 22" fill-rule="evenodd" clip-rule="evenodd" d="M259.468 149.419H283.467V121.849H259.468V149.419Z" fill="#CCE3FF"/>
<path id="Fill 23" fill-rule="evenodd" clip-rule="evenodd" d="M259.468 178.559H337.043V152.261H259.468V178.559Z" fill="#B6D4FF"/>
<path id="Fill 24" fill-rule="evenodd" clip-rule="evenodd" d="M259.468 178.559H283.467V152.261H259.468V178.559Z" fill="#CCE3FF"/>
<path id="Fill 25" fill-rule="evenodd" clip-rule="evenodd" d="M340.626 275.153H370.329V119.153H340.626V275.153Z" fill="#CCE3FF"/>
<path id="Fill 26" fill-rule="evenodd" clip-rule="evenodd" d="M253.889 119.153H337.823V114.093H253.889V119.153Z" fill="#E6F4FF"/>
<path id="Fill 27" fill-rule="evenodd" clip-rule="evenodd" d="M337.823 119.153H372.274V114.093H337.823V119.153Z" fill="#CCE3FF"/>
<path id="Fill 28" fill-rule="evenodd" clip-rule="evenodd" d="M326.465 231.713V231.713C326.465 233.056 325.377 234.144 324.034 234.144H304.502V229.282H324.034C325.377 229.282 326.465 230.371 326.465 231.713Z" fill="#CCE3FF"/>
<path id="Fill 29" fill-rule="evenodd" clip-rule="evenodd" d="M313.171 231.713V231.713C313.171 232.491 312.541 233.121 311.763 233.121H304.531C304.515 233.121 304.502 233.108 304.502 233.091V230.335C304.502 230.319 304.515 230.306 304.531 230.306H311.763C312.541 230.306 313.171 230.936 313.171 231.713Z" fill="#DCEEFF"/>
<path id="Fill 30" fill-rule="evenodd" clip-rule="evenodd" d="M329.224 234.145V239.007H307.884C306.541 239.007 305.453 237.918 305.453 236.576C305.453 235.233 306.541 234.145 307.884 234.145H329.224Z" fill="#CCE3FF"/>
<path id="Fill 31" fill-rule="evenodd" clip-rule="evenodd" d="M329.224 235.182V237.969H320.487C319.718 237.969 319.094 237.345 319.094 236.576C319.094 235.806 319.718 235.182 320.487 235.182H329.224Z" fill="#DCEEFF"/>
<path id="Fill 32" fill-rule="evenodd" clip-rule="evenodd" d="M329.133 224.42V229.282H309.193C307.851 229.282 306.762 228.194 306.762 226.851C306.762 225.509 307.851 224.42 309.193 224.42H329.133Z" fill="#CCE3FF"/>
<path id="Fill 33" fill-rule="evenodd" clip-rule="evenodd" d="M329.133 225.457V228.245H321.797C321.028 228.245 320.403 227.621 320.403 226.851C320.403 226.081 321.028 225.457 321.797 225.457H329.133Z" fill="#DCEEFF"/>
<path id="Fill 34" fill-rule="evenodd" clip-rule="evenodd" d="M277.903 208.837H291.273V190.145H277.903V208.837Z" fill="#DCEEFF"/>
<path id="Fill 35" fill-rule="evenodd" clip-rule="evenodd" d="M277.903 189.484H291.273V188.329H277.903V189.484Z" fill="#DCEEFF"/>
<path id="Fill 36" fill-rule="evenodd" clip-rule="evenodd" d="M291.779 192.719H277.398C276.602 192.719 275.958 192.074 275.958 191.278V190.925C275.958 190.129 276.602 189.484 277.398 189.484H291.779C292.574 189.484 293.219 190.129 293.219 190.925V191.278C293.219 192.074 292.574 192.719 291.779 192.719Z" fill="#E6F4FF"/>
<path id="Fill 37" fill-rule="evenodd" clip-rule="evenodd" d="M267.313 269.231H287.965V254.749H267.313V269.231Z" fill="#ECF6FF"/>
<path id="Fill 38" fill-rule="evenodd" clip-rule="evenodd" d="M287.964 269.231H303.189V254.749H287.964V269.231Z" fill="#CCE3FF"/>
<path id="Fill 39" fill-rule="evenodd" clip-rule="evenodd" d="M283.91 261.99H271.558C271.558 260.722 272.586 259.695 273.853 259.695H281.615C282.883 259.695 283.91 260.722 283.91 261.99Z" fill="#CCE3FF"/>
<path id="Fill 40" fill-rule="evenodd" clip-rule="evenodd" d="M296.681 269.231H317.332V254.749H296.681V269.231Z" fill="#ECF6FF"/>
<path id="Fill 41" fill-rule="evenodd" clip-rule="evenodd" d="M317.332 269.231H332.556V254.749H317.332V269.231Z" fill="#CCE3FF"/>
<path id="Fill 42" fill-rule="evenodd" clip-rule="evenodd" d="M313.277 261.99H300.925C300.925 260.722 301.953 259.695 303.22 259.695H310.982C312.25 259.695 313.277 260.722 313.277 261.99Z" fill="#CCE3FF"/>
<path id="Fill 43" fill-rule="evenodd" clip-rule="evenodd" d="M272.891 149.419H293.543V134.938H272.891V149.419Z" fill="#ECF6FF"/>
<path id="Fill 44" fill-rule="evenodd" clip-rule="evenodd" d="M293.542 149.419H308.767V134.938H293.542V149.419Z" fill="#CCE3FF"/>
<path id="Fill 45" fill-rule="evenodd" clip-rule="evenodd" d="M289.488 142.178H277.136C277.136 140.911 278.163 139.883 279.431 139.883H287.193C288.46 139.883 289.488 140.911 289.488 142.178Z" fill="#CCE3FF"/>
<path id="Fill 46" fill-rule="evenodd" clip-rule="evenodd" d="M316.698 174.929L318.6 156.398H324.546L326.448 174.929C326.647 176.87 325.123 178.559 323.171 178.559H319.975C318.023 178.559 316.499 176.87 316.698 174.929Z" fill="#CCE3FF"/>
<path id="Fill 47" fill-rule="evenodd" clip-rule="evenodd" d="M270.574 239.007H275.367V220.698H270.574V239.007Z" fill="#DCEEFF"/>
<path id="Fill 48" fill-rule="evenodd" clip-rule="evenodd" d="M265.781 239.007H270.573V220.698H265.781V239.007Z" fill="#ECF6FF"/>
<path id="Fill 49" fill-rule="evenodd" clip-rule="evenodd" d="M275.366 239.007H280.159V220.698H275.366V239.007Z" fill="#ECF6FF"/>
<path id="Fill 50" fill-rule="evenodd" clip-rule="evenodd" d="M292.786 239.007H280.159V220.698H292.786C293.461 220.698 294.008 221.245 294.008 221.92V237.785C294.008 238.46 293.461 239.007 292.786 239.007Z" fill="#DCEEFF"/>
<path id="Fill 51" fill-rule="evenodd" clip-rule="evenodd" d="M282.211 225.178H291.956V223.366H282.211V225.178Z" fill="#CCE3FF"/>
<path id="Fill 52" fill-rule="evenodd" clip-rule="evenodd" d="M284.382 227.975H289.784V226.162H284.382V227.975Z" fill="#CCE3FF"/>
<path id="Fill 53" fill-rule="evenodd" clip-rule="evenodd" d="M308.478 210.288C302.64 210.288 297.908 205.555 297.908 199.718V196.683H319.048V199.718C319.048 205.555 314.316 210.288 308.478 210.288Z" fill="#ECF6FF"/>
<path id="Fill 54" fill-rule="evenodd" clip-rule="evenodd" d="M319.539 170.132C319.539 173.693 317.658 176.817 314.836 178.559H304.478C301.656 176.817 299.775 173.693 299.775 170.132C299.775 168.475 300.183 166.915 300.901 165.545H318.412C319.131 166.915 319.539 168.475 319.539 170.132Z" fill="#DCEEFF"/>
</g>
</g>
<g id="Background Object / Chair / 5">
<g id="Group 14">
<path id="Fill 1_2" fill-rule="evenodd" clip-rule="evenodd" d="M85.1372 265.674L76.1481 286.807H72.0717L77.4796 264.638L85.1372 265.674Z" fill="#B6D4FF"/>
<path id="Fill 2" fill-rule="evenodd" clip-rule="evenodd" d="M131.058 265.674L122.069 286.807H117.992L123.4 264.638L131.058 265.674Z" fill="#B6D4FF"/>
<path id="Fill 3" fill-rule="evenodd" clip-rule="evenodd" d="M199.648 286.807H195.572L186.583 265.674L194.24 264.638L199.648 286.807Z" fill="#B6D4FF"/>
<path id="Fill 4_2" fill-rule="evenodd" clip-rule="evenodd" d="M153.728 286.807H149.651L140.662 265.674L148.32 264.638L153.728 286.807Z" fill="#B6D4FF"/>
<path id="Fill 5" fill-rule="evenodd" clip-rule="evenodd" d="M194.635 216.217V267.387L141.475 267.5L132.733 216.883L194.635 216.217ZM190.587 220.311L137.532 220.882L144.883 263.443L190.587 263.346V220.311Z" fill="#B6D4FF"/>
<path id="Fill 6_2" fill-rule="evenodd" clip-rule="evenodd" d="M124.876 184.764L139.165 267.5H76.8268L62.5369 184.764H124.876Z" fill="#CCE3FF"/>
<path id="Fill 7" fill-rule="evenodd" clip-rule="evenodd" d="M141.639 184.764L155.928 267.5H94.3459L80.0562 184.764H141.639Z" fill="#DCEEFF"/>
<path id="Fill 8_2" fill-rule="evenodd" clip-rule="evenodd" d="M156.907 267.501H83.6031C79.8606 267.501 76.8267 264.466 76.8267 260.722V245.099C76.8267 241.355 79.8606 238.32 83.6031 238.32H156.907C160.65 238.32 163.684 241.355 163.684 245.099V260.722C163.684 264.466 160.65 267.501 156.907 267.501Z" fill="#CCE3FF"/>
<path id="Fill 10_2" fill-rule="evenodd" clip-rule="evenodd" d="M194.911 267.5H129.987V238.319H194.911V267.5Z" fill="#DCEEFF"/>
<path id="Fill 12_2" fill-rule="evenodd" clip-rule="evenodd" d="M129.987 216.217V267.387L76.8267 267.5L68.0843 216.883L129.987 216.217ZM125.939 220.311L72.8838 220.882L80.2349 263.443L125.939 263.346V220.311Z" fill="#B6D4FF"/>
</g>
</g>
<g id="Background Object / Pluteus / 2">
<g id="Group 21">
<path id="Fill 1_3" fill-rule="evenodd" clip-rule="evenodd" d="M68.1793 73.6477C69.0079 80.602 74.9271 85.9973 82.1055 85.9973C89.2839 85.9973 95.2032 80.602 96.0317 73.6477H68.1793Z" fill="#ECF6FF"/>
<g id="Group 5">
<path id="Fill 3_2" fill-rule="evenodd" clip-rule="evenodd" d="M122.097 65.1951C122.925 72.1494 128.845 77.5446 136.023 77.5446C143.201 77.5446 149.121 72.1494 149.949 65.1951H122.097Z" fill="#ECF6FF"/>
</g>
<path id="Fill 6_3" fill-rule="evenodd" clip-rule="evenodd" d="M122.097 73.6477C122.925 80.602 128.845 85.9973 136.023 85.9973C143.201 85.9973 149.121 80.602 149.949 73.6477H122.097Z" fill="#ECF6FF"/>
<path id="Fill 8_3" fill-rule="evenodd" clip-rule="evenodd" d="M113.357 75.6062H101.986L105.048 85.678H110.296L113.357 75.6062Z" fill="#DCEEFF"/>
<path id="Fill 10_3" fill-rule="evenodd" clip-rule="evenodd" d="M168.464 75.6062H157.093L160.155 85.678H165.403L168.464 75.6062Z" fill="#DCEEFF"/>
<path id="Fill 12_3" fill-rule="evenodd" clip-rule="evenodd" d="M113.357 69.0293H101.986L105.048 79.1013H110.296L113.357 69.0293Z" fill="#DCEEFF"/>
<path id="Fill 14_2" fill-rule="evenodd" clip-rule="evenodd" d="M177.856 88.077H77.0716V83.8435H177.856V88.077Z" fill="#DCEEFF"/>
<path id="Fill 16_2" fill-rule="evenodd" clip-rule="evenodd" d="M77.0718 88.077H60.4917V83.8435H77.0718V88.077Z" fill="#CCE3FF"/>
<path id="Fill 17_2" fill-rule="evenodd" clip-rule="evenodd" d="M153.292 88.0771L145.422 100.425V88.0771H153.292Z" fill="#B6D4FF"/>
<path id="Fill 18_2" fill-rule="evenodd" clip-rule="evenodd" d="M157.647 88.0771L149.777 100.425H145.421L153.292 88.0771H157.647Z" fill="#CCE3FF"/>
<path id="Fill 19_2" fill-rule="evenodd" clip-rule="evenodd" d="M95.5669 88.0771L87.6964 100.425V88.0771H95.5669Z" fill="#B6D4FF"/>
<path id="Fill 20_2" fill-rule="evenodd" clip-rule="evenodd" d="M99.9229 88.0771L92.0524 100.425H87.6969L95.5674 88.0771H99.9229Z" fill="#CCE3FF"/>
</g>
</g>
<g id="Background Object / Picture / 5">
<g id="Group 8">
<path id="Fill 1_4" fill-rule="evenodd" clip-rule="evenodd" d="M259.775 77.5023H317.85V28.2507H259.775V77.5023Z" fill="#DCEEFF"/>
<path id="Stroke 2" fill-rule="evenodd" clip-rule="evenodd" d="M259.775 77.5023H317.85V28.2507H259.775V77.5023Z" stroke="#DCEEFF" stroke-width="5"/>
<path id="Fill 4_3" fill-rule="evenodd" clip-rule="evenodd" d="M256.36 77.5695H314.435V28.3179H256.36V77.5695Z" fill="white"/>
<path id="Stroke 5" fill-rule="evenodd" clip-rule="evenodd" d="M256.36 77.5695H314.435V28.3179H256.36V77.5695Z" stroke="#DCEEFF" stroke-width="5"/>
<path id="Fill 7_2" fill-rule="evenodd" clip-rule="evenodd" d="M266.251 67.3932H303.716V38.3596H266.251V67.3932Z" fill="#DCEEFF"/>
</g>
</g>
<g id="Background Object / Picture / 1">
<g id="Group 8_2">
<path id="Fill 1_5" fill-rule="evenodd" clip-rule="evenodd" d="M369.892 78.0402H407.18V46.7078H369.892V78.0402Z" fill="#DCEEFF"/>
<path id="Stroke 2_2" fill-rule="evenodd" clip-rule="evenodd" d="M369.892 78.0402H407.18V46.7078H369.892V78.0402Z" stroke="#DCEEFF" stroke-width="5"/>
<path id="Fill 4_4" fill-rule="evenodd" clip-rule="evenodd" d="M367.699 78.0836H404.987V46.7512H367.699V78.0836Z" fill="white"/>
<path id="Stroke 5_2" fill-rule="evenodd" clip-rule="evenodd" d="M367.699 78.0836H404.987V46.7512H367.699V78.0836Z" stroke="#DCEEFF" stroke-width="5"/>
<path id="Fill 7_3" fill-rule="evenodd" clip-rule="evenodd" d="M374.05 71.6092H398.105V53.1389H374.05V71.6092Z" fill="#DCEEFF"/>
</g>
</g>
</g>
<g id="Person / Man / 5">
<g id="Man / Head / 1">
<g id="Group 23">
<g id="Face color">
<path id="Face" d="M185.757 145.621L185.503 136.898C185.503 136.898 196.16 137.742 198.44 136.564C198.44 136.564 201.226 122.285 197.903 114.378L197.836 114.07L175.347 111.453L174.325 124.625C173.567 122.403 167.076 119.547 165.442 122.729C161.9 129.626 174.564 134.269 174.564 134.269L173.278 145.726" fill="#FFCDA0"/>
</g>
<path id="Fill 4_5" opacity="0.403344" fill-rule="evenodd" clip-rule="evenodd" d="M185.503 136.898L178.317 135.365L185.469 140.17L185.503 136.898Z" fill="black"/>
<path id="Fill 6_4" fill-rule="evenodd" clip-rule="evenodd" d="M191.431 122.643L193.914 128.681L190.938 128.719L191.431 122.643Z" fill="#405FD3"/>
<path id="Fill 8_4" fill-rule="evenodd" clip-rule="evenodd" d="M188.599 124.358C188.747 125.172 188.204 125.95 187.387 126.097C186.569 126.244 185.787 125.704 185.639 124.891C185.491 124.078 186.034 123.3 186.851 123.153C187.669 123.005 188.452 123.545 188.599 124.358Z" fill="#0D0B6D"/>
<path id="Fill 10_4" fill-rule="evenodd" clip-rule="evenodd" d="M196.41 124.358C196.558 125.172 196.015 125.95 195.198 126.097C194.38 126.244 193.597 125.704 193.45 124.891C193.302 124.078 193.845 123.3 194.662 123.153C195.48 123.005 196.262 123.545 196.41 124.358Z" fill="#0D0B6D"/>
<path id="Hair" d="M176.461 127.872C176.42 127.771 176.373 127.666 176.323 127.557C174.606 123.903 171.943 122.368 170.193 121.731C169.237 120.324 168.484 118.751 168.234 117.095C167.44 111.853 168.827 107.062 171.922 105.689C175.055 104.299 182.475 104.996 190.807 104.996C200.812 104.996 201.363 104.015 201.363 104.015C201.363 104.015 210.182 116.391 193.9 116.031C185.368 115.843 180.513 116.056 180.513 116.056L176.461 127.872Z" fill="#19141E"/>
<g id="Group 22">
<path id="Fill 19_3" fill-rule="evenodd" clip-rule="evenodd" d="M189.512 132.566C189.512 132.566 191.044 133.817 192.946 133.015L189.512 132.566Z" fill="white"/>
<path id="Stroke 21" d="M189.512 132.566C189.512 132.566 191.044 133.817 192.946 133.015" stroke="#252535" stroke-width="4"/>
<path id="Fill 17_3" fill-rule="evenodd" clip-rule="evenodd" d="M186.925 131.261C186.925 131.261 187.754 129.107 191.678 129.269C195.603 129.43 196.089 132.099 196.089 132.099L186.925 131.261Z" fill="#19141E"/>
</g>
</g>
</g>
<g id="Man / Legs / 1">
<g id="Group 18">
<g id="Shoes">
<path id="Shoes_2" fill-rule="evenodd" clip-rule="evenodd" d="M123.426 314.661L132.891 306.766L130.136 298.204L110.04 311.713L124.475 339.902C124.475 339.902 125.301 333.103 124.835 325.507C124.513 320.26 123.426 314.661 123.426 314.661ZM219.513 339.113L217.439 332.427L208.657 332.891L215.966 351.254L244.042 334.988C235.71 332.466 219.513 339.113 219.513 339.113Z" fill="#0D0B6D"/>
</g>
<g id="Leg skin">
<path id="Skin" fill-rule="evenodd" clip-rule="evenodd" d="M130.504 308.779L130.003 298.189L118.429 306.124L123.426 314.661L130.504 308.779ZM216.909 330.586L208.525 332.854L212.327 342.11L219.513 339.113L216.909 330.586Z" fill="#FFCDA0"/>
</g>
<g id="Pants">
<path id="Pants_2" d="M166.367 228.566C164.052 220.938 162.417 215.257 161.88 212.777C159.491 201.747 159.496 196.476 159.496 196.076H167.778L198.981 196.075C198.811 199.026 199.303 206.849 198.191 217.682L222.419 325.758L224.864 325.332L226.991 333.732L200.491 339.021L197.262 330.145L198.845 329.869C195.308 319.223 187.584 295.588 180.089 272.208C179.154 273.766 178.172 275.329 177.142 276.895C163.176 298.133 149.237 310.421 141.6 316.194L142.729 317.809L135.069 322.682L118.223 298.715L125.655 293.389L126.909 295.181C135.974 286.843 154.083 267.235 164.759 235.734C165.475 233.623 165.991 231.194 166.367 228.566Z" fill="#19141E"/>
</g>
<g id="Overlay">
<path id="Overlay_2" fill-rule="evenodd" clip-rule="evenodd" d="M198.846 329.869C191.26 307.035 164.409 224.454 161.88 212.777C159.496 201.77 159.496 196.498 159.496 196.078C159.496 196.077 159.496 196.077 159.496 196.076H193.348L222.42 325.759L224.865 325.332L226.992 333.733L200.491 339.022L197.262 330.145L198.846 329.869Z" fill="white" fill-opacity="0.1"/>
</g>
</g>
</g>
<g id="Man / Body / 5">
<g id="Group 36">
<g id="Skin color">
<path id="Mask" fill-rule="evenodd" clip-rule="evenodd" d="M171.19 143.693C171.878 144.894 174.894 149.336 182.041 149.757C188.945 150.159 188.433 146.504 188.073 145.282C187.912 145.238 187.75 145.193 187.587 145.148C186.069 144.728 184.453 144.28 182.24 144.051C176.199 143.425 175.725 143.379 171.19 143.693ZM225.91 163.071C222.625 169.523 211.091 190.7 202.869 187.322C196.712 184.793 189.343 163.825 189.343 163.825L201.322 156.695L206.705 171.105L217.697 159.164C217.324 156.798 217.025 153.705 217.769 152.614C219.035 150.758 225.444 145.04 225.444 145.04L226.611 154.729L226.815 153.912C226.815 153.866 226.826 153.817 226.849 153.764L226.856 153.749L227.328 151.858C227.13 151.758 227.049 151.616 227.134 151.418C227.204 151.258 227.355 151.083 227.567 150.899L229.178 144.444C229.178 144.444 229.707 144.679 230.482 145.031C231.728 144.774 236.242 147.843 236.311 147.89L236.312 147.89C237.231 148.484 235.045 158.296 233.269 160.119C232.006 161.416 228.074 162.534 225.91 163.071ZM152.518 206.826L153.252 208.219C153.252 208.219 153.916 209.357 154.611 211.344C154.868 212.078 154.991 212.707 155.119 213.366C155.338 214.489 155.573 215.699 156.521 217.666C158.229 221.208 155.175 219.748 154.08 218.202C153.72 217.693 153.529 217.11 153.346 216.55C153.093 215.781 152.856 215.056 152.214 214.633C152.182 214.684 152.147 214.737 152.108 214.795C151.699 215.403 150.954 216.514 150.521 221.183C150.436 222.099 150.852 225.072 150.852 225.072C150.853 225.139 150.854 225.21 150.855 225.286C150.872 226.231 150.9 227.842 149.961 228.104C149.71 228.175 149.383 227.897 149.383 227.897C149.383 227.897 149.481 229.06 148.445 229.291C148.037 229.382 147.228 226.872 147.228 226.872C147.228 226.872 147.104 228.147 146.33 228.288C146.111 228.328 143.528 221.056 143.528 221.056L143.683 222.699L144.026 224.381C144.026 224.381 143.999 225.286 143.271 225.447C142.983 225.51 142.428 224 141.909 222.223C141.101 219.458 141.117 217.381 141.355 215.315C141.413 214.813 141.454 214.379 141.491 213.98C141.641 212.392 141.737 211.365 142.626 208.917C142.759 208.551 142.937 208.131 143.136 207.699C142.526 202.435 140.808 187.028 141.019 182.298C141.274 176.561 147.352 163.825 147.352 163.825L159.693 170.724L152.891 183.117L152.518 206.826Z" fill="#FFCDA0"/>
</g>
<g id="T-Shirt">
<path id="T-Shirt_2" fill-rule="evenodd" clip-rule="evenodd" d="M159.32 196.221H198.912L200.362 171.784L207.311 167.734L202.443 156.541L202.4 156.55C202.197 156.143 201.974 155.721 201.731 155.282C198.709 149.839 193.541 146.77 188.072 145.282C187.984 145.258 187.948 145.24 187.944 145.246C187.934 145.26 188.123 145.42 188.178 145.978C188.253 146.759 188.007 147.817 187.748 148.139C187.136 148.898 186.213 149.329 185.841 149.431C185.47 149.532 185.175 149.591 184.847 149.656C184.616 149.702 183.307 149.799 183.08 149.787C181.216 149.69 180.302 149.604 179.128 149.325C178.713 149.226 178.283 149.114 177.773 148.899C177.677 148.859 177.573 148.816 177.46 148.77C176.91 148.544 176.176 148.242 175.43 147.825C174.642 147.385 173.839 146.804 173.258 146.211C173.202 146.154 173.147 146.098 173.094 146.044C172.483 145.422 172.067 144.998 171.778 144.572C171.583 144.284 171.509 144.189 171.466 144.132C171.44 144.098 171.425 144.079 171.401 144.04C171.337 143.936 171.281 143.845 171.266 143.784C171.249 143.718 171.309 143.69 171.307 143.684C171.306 143.679 171.279 143.684 171.19 143.692C168.403 143.968 165.408 144.687 162.143 146.211C152.042 150.923 146.138 162.761 146.138 162.761L158.657 172.122L159.32 196.221Z" fill="#3BC5E9"/>
</g>
<path id="Stroke 16" opacity="0.200521" d="M158.656 172.121L161.832 174.27L169.465 165.406" stroke="black" stroke-width="5"/>
<path id="Phone" d="M231.155 156.454L230.602 159.159H221.644L225.869 137.617H234.827C234.595 138.801 234.048 141.589 233.186 145.982L231.425 145.168L230.876 145.016L230.444 145.04L230.257 145.168V145.691L232.172 148.437L230.707 149.073L228.454 150.252L227.802 150.702L227.55 150.935L227.344 151.119L227.213 151.277L227.134 151.418L227.1 151.602L227.134 151.683L227.173 151.746L227.23 151.802L227.969 152.062L229.654 151.602H231.319L229.096 152.062L227.632 152.936L227.134 153.404L226.853 153.748V154.062L227.344 154.283L230.444 153.928L229.418 154.485L228.738 154.905L228.114 155.226L227.632 155.847V156.153L227.802 156.333L228.235 156.563H228.896H230.226L231.155 156.454Z" fill="#3BC5E9"/>
<path id="Fill 23_2" fill-rule="evenodd" clip-rule="evenodd" d="M221.643 159.159H220.161L224.386 137.617H225.868L221.643 159.159Z" fill="#020101"/>
<path id="Fill 34_2" fill-rule="evenodd" clip-rule="evenodd" d="M227.411 140.118C227.287 140.747 226.92 141.206 226.591 141.141C226.262 141.078 226.096 140.516 226.22 139.886C226.344 139.257 226.711 138.799 227.04 138.863C227.368 138.927 227.535 139.489 227.411 140.118Z" fill="#020101"/>
</g>
</g>
</g>
<g id="Person / Girl / 4">
<g id="Girl / Head / 1">
<g id="Group 21_2">
<g id="Hair color">
<path id="Hair_2" d="M322.779 117.617C322.779 119.883 323.014 122.095 323.464 124.229C326.509 138.763 339.4 143.723 354.842 143.723C372.546 143.723 386.901 135.324 386.901 117.617C386.901 99.91 372.546 85.5579 354.842 85.5579C342.669 85.5579 332.079 92.3395 326.649 102.333C324.182 106.876 322.779 112.083 322.779 117.617Z" fill="#393954"/>
<mask id="mask0_5_339" style="mask-type:alpha" maskUnits="userSpaceOnUse" x="322" y="85" width="65" height="59">
<path id="Hair_3" d="M322.779 117.617C322.779 119.883 323.014 122.095 323.464 124.229C326.509 138.763 339.4 143.723 354.842 143.723C372.546 143.723 386.901 135.324 386.901 117.617C386.901 99.91 372.546 85.5579 354.842 85.5579C342.669 85.5579 332.079 92.3395 326.649 102.333C324.182 106.876 322.779 112.083 322.779 117.617Z" fill="white"/>
</mask>
<g mask="url(#mask0_5_339)">
</g>
</g>
<path id="Fill 4_6" fill-rule="evenodd" clip-rule="evenodd" d="M349.344 138.948C349.344 138.948 353.193 139.061 354.834 138.165L349.548 141.484L349.344 138.948Z" fill="#CF3E83"/>
<g id="Face color_2">
<path id="Face_2" d="M350.631 114.612C346.882 117.837 341.333 120.836 334.819 122.875C335.234 127.288 336.611 134.895 340.764 137.658C342.726 138.962 346.3 139.123 349.344 138.948L350.042 147.594L359.09 144.05C359.09 144.05 356.831 133.542 358.041 131.611C359.665 129.009 364.01 128.171 364.015 124.575C364.016 123.511 363.394 121.667 361.095 121.663C358.01 121.659 358.45 125.355 358.45 125.355C355.612 126.459 352.719 118.896 350.631 114.612V114.612Z" fill="#FFCDA0"/>
</g>
<path id="Fill 9_2" fill-rule="evenodd" clip-rule="evenodd" d="M340.976 125.348L338.773 130.689L341.329 130.638L340.976 125.348Z" fill="#2437A8"/>
<path id="Fill 11_2" fill-rule="evenodd" clip-rule="evenodd" d="M343.321 125.58C343.376 126.647 344.004 127.478 344.723 127.437C345.442 127.395 345.981 126.497 345.926 125.43C345.871 124.363 345.243 123.531 344.524 123.573C343.805 123.614 343.266 124.513 343.321 125.58Z" fill="#1D1D23"/>
<path id="Fill 13_2" fill-rule="evenodd" clip-rule="evenodd" d="M336.568 125.409C336.623 126.476 337.25 127.308 337.969 127.266C338.688 127.225 339.227 126.326 339.172 125.259C339.117 124.192 338.49 123.361 337.77 123.403C337.051 123.444 336.513 124.342 336.568 125.409Z" fill="#1D1D23"/>
<path id="Stroke 15" d="M341.956 133.196C341.956 133.196 343.621 133.733 345.29 131.878" stroke="#24242B" stroke-width="3"/>
<path id="Fill 17_4" opacity="0.399019" fill-rule="evenodd" clip-rule="evenodd" d="M349.35 138.947C349.35 138.947 353.2 139.061 354.84 138.165L349.555 141.484L349.35 138.947Z" fill="black"/>
</g>
</g>
<g id="Girl / Body / 2">
<g id="Group 39">
<g id="Skin color_2">
<path id="Skin_2" fill-rule="evenodd" clip-rule="evenodd" d="M344.819 148.726C346.61 145.696 349.008 144.002 349.008 144.002L359.966 143.473C359.966 143.473 359.032 145.879 358.044 148.972C356.091 155.086 351.458 156.461 347.421 156.454C343.65 156.448 342.368 152.872 344.819 148.726ZM317.825 166.491C318.021 164.565 318.098 162.261 317.486 161.436C316.364 159.922 310.813 155.345 310.813 155.345L310.517 159.165L309.203 154.681C309.203 154.681 307.748 155.112 306.34 155.849C305.324 156.38 304.351 157.101 303.74 157.553L303.739 157.553C303.594 157.661 303.47 157.753 303.37 157.824C302.624 158.354 304.793 166.517 306.34 167.986C307.402 168.994 310.533 169.775 312.391 170.166C315.94 175.897 325.398 190.217 330.623 189.035C336.051 187.808 341.087 168.833 341.087 168.833L331.931 164.373L327.945 176.66L317.825 166.491ZM380.04 208.074L377.812 213.773C377.812 213.773 377.473 215.241 377.284 216.975L377.259 217.206C377.087 218.807 376.971 219.881 375.874 222.365C375.074 224.179 377.664 223.637 378.398 222.624C378.669 222.25 378.892 221.462 379.124 220.642C379.54 219.172 379.984 217.601 380.785 218.145C382.031 218.992 382.407 223.302 382.128 227.371C382.084 228.01 382.528 228.532 382.846 228.716C383.36 229.014 384.111 226.496 384.111 226.496C384.111 226.496 384.382 227.381 385.201 227.011C385.492 226.88 386.356 225.167 386.356 225.167C386.356 225.167 387.025 224.322 387.377 223.38C387.999 221.715 388.506 218.625 388.387 217.718C388.104 215.578 387.468 211.967 386.633 209.967C387.126 204.826 389.017 184.188 387.974 180.268C386.78 175.782 384.44 169.703 384.44 169.703L375.461 174.984L379.31 183.201L380.04 208.074Z" fill="#FFCDA0"/>
</g>
<path id="Path" fill-rule="evenodd" clip-rule="evenodd" d="M306.168 155.965C306.994 155.491 307.781 155.136 308.167 155.226C308.842 155.383 307.607 157.153 306.706 158.318L306.716 158.362C308.17 158.947 310.075 159.815 310.382 160.45C310.596 160.893 309.76 161.038 308.725 161.058C309.678 161.514 310.509 162.008 310.702 162.409C310.95 162.923 309.79 163.036 308.543 163.018C309.644 163.52 310.676 164.091 310.895 164.544C311.173 165.122 309.671 165.193 308.267 165.14L308.628 166.718C308.738 167.202 309.179 167.537 309.675 167.516L315.064 167.28C315.705 167.252 316.164 166.65 316.021 166.024L312.203 149.335C312.092 148.852 311.652 148.516 311.156 148.538L305.767 148.773C305.126 148.801 304.667 149.404 304.81 150.029L306.168 155.965Z" fill="#020101"/>
<g id="Phone color">
<path id="Phone_2" d="M305.069 156.642C306.212 155.896 307.609 155.096 308.167 155.226C308.848 155.385 307.585 157.184 306.682 158.349C308.14 158.934 310.073 159.81 310.382 160.45C310.596 160.893 309.76 161.038 308.725 161.058C309.677 161.514 310.509 162.008 310.702 162.409C310.95 162.923 309.79 163.036 308.543 163.018C309.644 163.52 310.676 164.091 310.895 164.544C311.263 165.309 308.51 165.186 306.996 165.063L307.387 166.772C307.497 167.256 307.938 167.592 308.434 167.57L313.823 167.334C314.464 167.306 314.923 166.704 314.78 166.078L310.962 149.39C310.851 148.906 310.411 148.57 309.915 148.592L304.526 148.827C303.884 148.856 303.426 149.458 303.568 150.084L305.069 156.642Z" fill="#3BC5E9"/>
</g>
<path id="Fill 20_3" fill-rule="evenodd" clip-rule="evenodd" d="M309.572 150.803C309.698 151.35 310.02 151.738 310.293 151.67C310.565 151.602 310.684 151.103 310.559 150.556C310.433 150.009 310.11 149.621 309.838 149.689C309.566 149.757 309.447 150.256 309.572 150.803Z" fill="#020101"/>
<path id="Fill 22_2" fill-rule="evenodd" clip-rule="evenodd" d="M310.203 153.633C310.328 154.18 310.651 154.569 310.923 154.5C311.195 154.432 311.314 153.934 311.189 153.387C311.063 152.84 310.741 152.451 310.468 152.519C310.196 152.588 310.077 153.086 310.203 153.633Z" fill="#020101"/>
<g id="T-shirt color">
<path id="T-Shirt_3" d="M356.354 143.647L359.966 143.473C359.966 143.473 359.032 145.879 358.044 148.972C356.091 155.087 351.458 156.461 347.42 156.454C343.649 156.448 342.368 152.872 344.819 148.726C346.397 146.058 348.445 144.425 348.911 144.074C344.149 144.395 341.184 144.993 338.438 147.569C333.21 152.472 328.977 161.512 327.236 170.442L336.79 174.705L340.193 187.854L365.195 187.473C365.195 187.473 364.976 185.064 365.515 181.584C366.218 177.032 368.753 173.636 368.753 173.636L371.268 177.458L386.907 168.238C381.787 158.902 374.645 149.275 369.884 146.211C366.52 144.046 363.44 143.503 360.43 143.473C359.061 143.46 357.687 143.553 356.354 143.647Z" fill="#3BC5E9"/>
</g>
<path id="Stroke 31" opacity="0.202962" d="M340.081 188.082C339.126 175.953 332.813 173.091 337.576 159.488" stroke="black" stroke-width="3"/>
<path id="Stroke 35" opacity="0.202055" d="M349.008 144.002C349.008 144.002 346.61 145.696 344.819 148.726C342.368 152.872 343.65 156.448 347.421 156.454C351.458 156.461 356.091 155.086 358.044 148.972C359.033 145.879 359.966 143.473 359.966 143.473" stroke="black" stroke-width="3"/>
<path id="Stroke 37" opacity="0.202962" d="M362.332 165.144L368.133 173.934" stroke="black" stroke-width="3"/>
</g>
</g>
<g id="Girl / Legs / 2">
<g id="Group 19">
<g id="Shoes_3">
<path id="Shoes_4" fill-rule="evenodd" clip-rule="evenodd" d="M338.664 342.257L337.949 336.018L344.229 333.102L344.88 350.972L320.365 350.93C325.364 345.744 338.664 342.257 338.664 342.257ZM375.164 334.313L382.112 334.464L382.042 342.406C382.042 342.406 388.746 343.569 391.068 350.972H373.639L374.395 342.052L375.164 334.313Z" fill="#0D0B6D"/>
</g>
<g id="Skin color_3">
<path id="Skin_3" fill-rule="evenodd" clip-rule="evenodd" d="M374.41 334.754L381.188 332.373L382.096 342.052L374.449 342.406L374.41 334.754ZM337.786 337.078L344.373 334.459L344.576 342.01L337.842 342.257L337.786 337.078Z" fill="#FFCDA0"/>
</g>
<g id="Pants_3">
<path id="Pants_4" d="M383.605 336.049C383.294 326.371 381.288 265.234 379.226 228.861C377.798 203.65 367.106 189.77 365.099 187.372H339.624C339.578 187.694 336.149 211.967 335.521 262.757C334.958 308.242 335.539 333.105 335.611 336.029L335.611 336.03L334.798 336.029L334.792 339.945L347.984 339.966L347.989 336.05L347.534 336.049L347.534 336.049L354.233 256.453L356.24 232.63L371.47 336.029L371.47 336.029L370.811 336.028L371.041 339.944L384.699 339.966L384.469 336.051L383.605 336.049L383.605 336.049Z" fill="#2F2F3D"/>
</g>
<path id="Fill 17_5" opacity="0.398065" fill-rule="evenodd" clip-rule="evenodd" d="M356.24 232.631L353.499 209.327L354.234 256.452L356.24 232.631Z" fill="#0A0A0F"/>
</g>
</g>
</g>
</g>
</svg>
