<svg width="496" height="354" viewBox="0 0 496 354" fill="none" xmlns="http://www.w3.org/2000/svg">
<g id="Illustration 18">
<g id="Background">
<g id="Background Object / Lamp">
<g id="Group 17">
<path id="Stroke 1" d="M281.846 182.289C281.846 182.289 282.678 177.957 285.518 178.235C291.442 178.814 284.186 197.857 296.377 199.08C308.568 200.303 309.834 181.227 309.834 181.227" stroke="#CCE3FF" stroke-width="7"/>
<path id="Stroke 3" d="M282.285 169.608V280.97" stroke="#DCEEFF" stroke-width="15"/>
<path id="Stroke 5" d="M309.835 181.226L237.083 149.855" stroke="#DCEEFF" stroke-width="15"/>
<path id="Fill 7" fill-rule="evenodd" clip-rule="evenodd" d="M268.274 280.97H296.296V279.59C296.296 277.806 294.849 276.359 293.065 276.359H271.504C269.72 276.359 268.274 277.806 268.274 279.59V280.97Z" fill="#DCEEFF"/>
<path id="Fill 10" fill-rule="evenodd" clip-rule="evenodd" d="M221.834 165.857L245.676 171.049L246.447 164.385L223.903 159.476L221.834 165.857Z" fill="#B6D4FF"/>
<path id="Fill 12" fill-rule="evenodd" clip-rule="evenodd" d="M232.492 155.874L239.6 157.422L241.629 148.098C242.035 146.234 240.852 144.393 238.988 143.987L238.631 143.909C236.767 143.503 234.926 144.686 234.521 146.55L232.492 155.874Z" fill="#B6D4FF"/>
<path id="Fill 15" fill-rule="evenodd" clip-rule="evenodd" d="M246.447 164.385L239.374 155.107L234.191 153.978L223.902 159.476L246.447 164.385Z" fill="#B6D4FF"/>
</g>
</g>
<g id="Background Object / Closet / 3">
<g id="Group 45">
<path id="Fill 1" fill-rule="evenodd" clip-rule="evenodd" d="M438.222 164.485H435.246C432.679 164.485 430.598 162.405 430.598 159.838V152.02C430.598 151.248 431.224 150.621 431.997 150.621H441.47C442.244 150.621 442.87 151.248 442.87 152.02V159.838C442.87 162.405 440.789 164.485 438.222 164.485" fill="#DCEEFF"/>
<path id="Fill 3" fill-rule="evenodd" clip-rule="evenodd" d="M433.552 157.553H439.915V145.026H433.552V157.553Z" fill="#DCEEFF"/>
<path id="Fill 5" fill-rule="evenodd" clip-rule="evenodd" d="M402.929 156.466V156.466C402.929 157.627 403.87 158.568 405.031 158.568H423.947V154.365H405.031C403.87 154.365 402.929 155.306 402.929 156.466" fill="#CCE3FF"/>
<path id="Fill 6" fill-rule="evenodd" clip-rule="evenodd" d="M415.651 156.467V156.467C415.651 157.139 416.196 157.683 416.868 157.683H423.896C423.924 157.683 423.947 157.661 423.947 157.633V155.3C423.947 155.272 423.924 155.25 423.896 155.25H416.868C416.196 155.25 415.651 155.794 415.651 156.467" fill="#DCEEFF"/>
<path id="Fill 7_2" fill-rule="evenodd" clip-rule="evenodd" d="M400.289 158.568V162.772H420.935C422.097 162.772 423.038 161.83 423.038 160.67C423.038 159.509 422.097 158.568 420.935 158.568H400.289Z" fill="#CCE3FF"/>
<path id="Fill 8" fill-rule="evenodd" clip-rule="evenodd" d="M400.289 159.465V161.875H408.778C409.444 161.875 409.983 161.335 409.983 160.67C409.983 160.004 409.444 159.465 408.778 159.465H400.289Z" fill="#DCEEFF"/>
<path id="Fill 9" fill-rule="evenodd" clip-rule="evenodd" d="M408.221 151.802L409.564 138.72H413.763L415.106 151.802C415.246 153.173 414.17 154.365 412.792 154.365H410.535C409.156 154.365 408.08 153.173 408.221 151.802" fill="#DCEEFF"/>
<path id="Fill 10_2" fill-rule="evenodd" clip-rule="evenodd" d="M373.752 275.543H436.04V164.65H373.752V275.543Z" fill="#E6F4FF"/>
<path id="Fill 11" fill-rule="evenodd" clip-rule="evenodd" d="M373.752 283.493H377.338V164.65H373.752V283.493Z" fill="#E6F4FF"/>
<path id="Fill 12_2" fill-rule="evenodd" clip-rule="evenodd" d="M377.339 283.493H380.925V275.543H377.339V283.493Z" fill="#B6D4FF"/>
<path id="Fill 13" fill-rule="evenodd" clip-rule="evenodd" d="M399.17 283.493H402.757V275.543H399.17V283.493Z" fill="#B6D4FF"/>
<path id="Fill 14" fill-rule="evenodd" clip-rule="evenodd" d="M436.04 283.493H439.626V275.543H436.04V283.493Z" fill="#B6D4FF"/>
<path id="Fill 15_2" fill-rule="evenodd" clip-rule="evenodd" d="M450.7 283.493H454.286V275.543H450.7V283.493Z" fill="#C5E0FC"/>
<path id="Fill 16" fill-rule="evenodd" clip-rule="evenodd" d="M432.454 283.493H436.04V164.65H432.454V283.493Z" fill="#E6F4FF"/>
<path id="Fill 17" fill-rule="evenodd" clip-rule="evenodd" d="M454.286 283.603H457.872V275.543H454.286V283.603Z" fill="#B6D4FF"/>
<path id="Fill 18" fill-rule="evenodd" clip-rule="evenodd" d="M395.585 283.493H399.171V275.543H395.585V283.493Z" fill="#C5E0FC"/>
<path id="Fill 19" fill-rule="evenodd" clip-rule="evenodd" d="M377.338 270.622H402.519V249.341H377.338V270.622Z" fill="#CCE3FF"/>
<path id="Fill 20" fill-rule="evenodd" clip-rule="evenodd" d="M407.274 270.622H432.455V249.342H407.274V270.622Z" fill="#CCE3FF"/>
<path id="Fill 21" fill-rule="evenodd" clip-rule="evenodd" d="M377.338 244.588H402.519V223.31H377.338V244.588Z" fill="#CCE3FF"/>
<path id="Fill 22" fill-rule="evenodd" clip-rule="evenodd" d="M407.274 244.588H432.455V223.31H407.274V244.588Z" fill="#CCE3FF"/>
<path id="Fill 23" fill-rule="evenodd" clip-rule="evenodd" d="M377.339 218.557H432.454V197.277H377.339V218.557Z" fill="#CCE3FF"/>
<path id="Fill 24" fill-rule="evenodd" clip-rule="evenodd" d="M377.339 218.557H394.389V197.277H377.339V218.557Z" fill="#B6D4FF"/>
<path id="Fill 25" fill-rule="evenodd" clip-rule="evenodd" d="M377.339 192.524H432.454V171.245H377.339V192.524Z" fill="#CCE3FF"/>
<path id="Fill 26" fill-rule="evenodd" clip-rule="evenodd" d="M377.339 192.524H394.389V171.245H377.339V192.524Z" fill="#B6D4FF"/>
<path id="Fill 27" fill-rule="evenodd" clip-rule="evenodd" d="M436.041 275.543H457.873V164.65H436.041V275.543Z" fill="#B6D4FF"/>
<path id="Fill 28" fill-rule="evenodd" clip-rule="evenodd" d="M435.326 166.241H372.376C370.547 166.241 369.064 164.758 369.064 162.93V162.73H435.326V166.241Z" fill="#E6F4FF"/>
<path id="Fill 29" fill-rule="evenodd" clip-rule="evenodd" d="M459.211 166.241H435.325V162.73H462.523V162.93C462.523 164.758 461.04 166.241 459.211 166.241" fill="#B6D4FF"/>
<path id="Fill 30" fill-rule="evenodd" clip-rule="evenodd" d="M373.752 167.776H436.04V166.24H373.752V167.776Z" fill="#CCE3FF"/>
<path id="Fill 31" fill-rule="evenodd" clip-rule="evenodd" d="M389.688 192.524H393.073V179.599H389.688V192.524Z" fill="#DCEEFF"/>
<path id="Fill 32" fill-rule="evenodd" clip-rule="evenodd" d="M386.303 192.524H389.688V179.599H386.303V192.524Z" fill="#CCE3FF"/>
<path id="Fill 33" fill-rule="evenodd" clip-rule="evenodd" d="M393.072 192.524H396.457V179.599H393.072V192.524Z" fill="#CCE3FF"/>
<path id="Fill 34" fill-rule="evenodd" clip-rule="evenodd" d="M405.374 192.524H396.457V179.599H405.374C405.85 179.599 406.237 179.985 406.237 180.462V191.662C406.237 192.138 405.85 192.524 405.374 192.524" fill="#B6D4FF"/>
<path id="Fill 35" fill-rule="evenodd" clip-rule="evenodd" d="M397.906 182.762H404.787V181.482H397.906V182.762Z" fill="#CCE3FF"/>
<path id="Fill 36" fill-rule="evenodd" clip-rule="evenodd" d="M399.439 184.736H403.254V183.457H399.439V184.736Z" fill="#CCE3FF"/>
<path id="Fill 37" fill-rule="evenodd" clip-rule="evenodd" d="M426.317 211.139V211.414C426.317 212.678 425.292 213.703 424.027 213.703H404.189V208.85H424.027C425.292 208.85 426.317 209.875 426.317 211.139" fill="#B6D4FF"/>
<path id="Fill 38" fill-rule="evenodd" clip-rule="evenodd" d="M412.923 211.197V211.356C412.923 212.088 412.329 212.681 411.597 212.681H404.217C404.201 212.681 404.189 212.669 404.189 212.654V209.899C404.189 209.884 404.201 209.872 404.217 209.872H411.597C412.329 209.872 412.923 210.465 412.923 211.197" fill="#DCEEFF"/>
<path id="Fill 39" fill-rule="evenodd" clip-rule="evenodd" d="M429.097 213.703V218.556H407.436C406.172 218.556 405.146 217.532 405.146 216.267V215.992C405.146 214.728 406.172 213.703 407.436 213.703H429.097Z" fill="#B6D4FF"/>
<path id="Fill 40" fill-rule="evenodd" clip-rule="evenodd" d="M429.097 214.739V217.521H420.203C419.478 217.521 418.89 216.934 418.89 216.209V216.051C418.89 215.326 419.478 214.739 420.203 214.739H429.097Z" fill="#DCEEFF"/>
<path id="Fill 41" fill-rule="evenodd" clip-rule="evenodd" d="M396.091 251.023H383.766C382.837 251.023 382.084 250.27 382.084 249.341H397.773C397.773 250.27 397.02 251.023 396.091 251.023" fill="#B6D4FF"/>
<path id="Fill 42" fill-rule="evenodd" clip-rule="evenodd" d="M426.027 251.023H413.702C412.773 251.023 412.02 250.27 412.02 249.341H427.709C427.709 250.27 426.956 251.023 426.027 251.023" fill="#B6D4FF"/>
<path id="Fill 43" fill-rule="evenodd" clip-rule="evenodd" d="M426.027 224.991H413.702C412.773 224.991 412.02 224.238 412.02 223.31H427.709C427.709 224.238 426.956 224.991 426.027 224.991" fill="#B6D4FF"/>
<path id="Fill 44" fill-rule="evenodd" clip-rule="evenodd" d="M396.091 224.991H383.766C382.837 224.991 382.084 224.238 382.084 223.31H397.773C397.773 224.238 397.02 224.991 396.091 224.991" fill="#B6D4FF"/>
</g>
</g>
<g id="Background Object / Bedside-table / 4">
<g id="Group 34">
<path id="Fill 1_2" fill-rule="evenodd" clip-rule="evenodd" d="M188.668 240.033H203.196V210.72C203.196 209.475 202.187 208.466 200.943 208.466H190.922C189.677 208.466 188.668 209.475 188.668 210.72V240.033Z" fill="#CCE3FF"/>
<path id="Fill 3_2" fill-rule="evenodd" clip-rule="evenodd" d="M169.728 236.24C169.728 237.683 170.243 239.005 171.101 240.033H180.211C181.069 239.005 181.583 237.683 181.583 236.24C181.583 232.965 178.929 230.31 175.655 230.31C172.383 230.31 169.728 232.965 169.728 236.24" fill="#DCEEFF"/>
<path id="Fill 5_2" fill-rule="evenodd" clip-rule="evenodd" d="M177.703 232.036H173.608V228.542H177.703V232.036Z" fill="#DCEEFF"/>
<path id="Fill 7_3" fill-rule="evenodd" clip-rule="evenodd" d="M178.781 228.542H172.53V226.731H178.781V228.542Z" fill="#DCEEFF"/>
<path id="Fill 8_2" fill-rule="evenodd" clip-rule="evenodd" d="M178.071 240.033H186.82L182.445 233.19L178.071 240.033Z" fill="#B6D4FF"/>
<path id="Fill 9_2" fill-rule="evenodd" clip-rule="evenodd" d="M203.196 236.191H188.668V219.022H203.196V236.191Z" fill="#B6D4FF"/>
<path id="Fill 10_3" fill-rule="evenodd" clip-rule="evenodd" d="M201.083 238.871H196.099V237.707H201.083V238.871Z" fill="#B6D4FF"/>
<path id="Fill 11_2" fill-rule="evenodd" clip-rule="evenodd" d="M203.196 211.977H188.668V211.584H203.196V211.977Z" fill="#B6D4FF"/>
<path id="Stroke 13" d="M157.749 272.313V282.351" stroke="#CCE3FF" stroke-width="11"/>
<path id="Stroke 16" d="M173.657 272.313V282.351" stroke="#CCE3FF" stroke-width="11"/>
<path id="Stroke 19" d="M242.978 272.313V282.351" stroke="#CCE3FF" stroke-width="11"/>
<path id="Stroke 22" d="M258.886 272.313V282.351" stroke="#CCE3FF" stroke-width="11"/>
<path id="Fill 24_2" fill-rule="evenodd" clip-rule="evenodd" d="M266.021 272.313H180.663V240.033H266.021V272.313Z" fill="#DCEEFF"/>
<path id="Fill 25_2" fill-rule="evenodd" clip-rule="evenodd" d="M261.106 268.715H225.497V243.616H261.106V268.715Z" fill="#CCE3FF"/>
<path id="Fill 26_2" fill-rule="evenodd" clip-rule="evenodd" d="M221.187 268.715H185.577V243.616H221.187V268.715Z" fill="#CCE3FF"/>
<path id="Fill 27_2" fill-rule="evenodd" clip-rule="evenodd" d="M180.662 272.313H150.744V240.033H180.662V272.313Z" fill="#B6D4FF"/>
<path id="Fill 28_2" fill-rule="evenodd" clip-rule="evenodd" d="M244.939 232.149V232.149C244.939 233.601 243.763 234.777 242.312 234.777H218.675V229.521H242.312C243.763 229.521 244.939 230.698 244.939 232.149" fill="#CCE3FF"/>
<path id="Fill 29_2" fill-rule="evenodd" clip-rule="evenodd" d="M229.042 232.149V232.149C229.042 232.99 228.361 233.671 227.521 233.671H218.739C218.704 233.671 218.675 233.643 218.675 233.608V230.691C218.675 230.656 218.704 230.628 218.739 230.628H227.521C228.361 230.628 229.042 231.309 229.042 232.149" fill="#DCEEFF"/>
<path id="Fill 30_2" fill-rule="evenodd" clip-rule="evenodd" d="M248.238 234.777V240.033H222.439C220.988 240.033 219.812 238.857 219.812 237.406C219.812 235.954 220.988 234.777 222.439 234.777H248.238Z" fill="#CCE3FF"/>
<path id="Fill 31_2" fill-rule="evenodd" clip-rule="evenodd" d="M248.238 235.898V238.912H237.631C236.799 238.912 236.124 238.238 236.124 237.405C236.124 236.573 236.799 235.898 237.631 235.898H248.238Z" fill="#DCEEFF"/>
<path id="Fill 32_2" fill-rule="evenodd" clip-rule="evenodd" d="M236 243.616V243.616C236 245.533 237.553 247.087 239.47 247.087H247.133C249.05 247.087 250.604 245.533 250.604 243.616H236Z" fill="#B6D4FF"/>
<path id="Fill 33_2" fill-rule="evenodd" clip-rule="evenodd" d="M196.08 243.616V243.616C196.08 245.533 197.634 247.087 199.55 247.087H207.213C209.13 247.087 210.684 245.533 210.684 243.616H196.08Z" fill="#B6D4FF"/>
</g>
</g>
<g id="Background Object / Ladder">
<g id="Group 39">
<path id="Stroke 1_2" d="M124.42 282.259L113.848 151.072" stroke="#CCE3FF" stroke-width="18"/>
<path id="Stroke 3_2" d="M71.2568 282.259L81.8296 151.072" stroke="#CCE3FF" stroke-width="18"/>
<path id="Stroke 5_2" d="M120.759 156.638H76.1228" stroke="#CCE3FF" stroke-width="18"/>
<path id="Stroke 7" d="M123.79 185.36H73.092" stroke="#CCE3FF" stroke-width="18"/>
<path id="Stroke 9" d="M126.182 219.774H70.6991" stroke="#CCE3FF" stroke-width="18"/>
<path id="Stroke 11" d="M130.256 250.824H66.6256" stroke="#CCE3FF" stroke-width="18"/>
<path id="Fill 14_2" fill-rule="evenodd" clip-rule="evenodd" d="M88.7963 208.793H103.462C104.126 208.793 104.665 208.254 104.665 207.59V184.52C104.665 183.856 104.126 183.317 103.462 183.317H88.7963C88.1319 183.317 87.5933 183.856 87.5933 184.52V207.59C87.5933 208.254 88.1319 208.793 88.7963 208.793" fill="#CCE3FF"/>
<path id="Fill 16_2" fill-rule="evenodd" clip-rule="evenodd" d="M98.5934 240.879H113.259C113.923 240.879 114.462 240.34 114.462 239.676V218.838C114.462 218.174 113.923 217.635 113.259 217.635H98.5934C97.9289 217.635 97.3902 218.174 97.3902 218.838V239.676C97.3902 240.34 97.9289 240.879 98.5934 240.879" fill="#CCE3FF"/>
<path id="Stroke 18" d="M128.204 282.259L117.631 151.072" stroke="#DCEEFF" stroke-width="30"/>
<path id="Stroke 20" d="M75.0394 282.259L85.6123 151.072" stroke="#DCEEFF" stroke-width="30"/>
<path id="Stroke 22_2" d="M123.912 156.638H79.2752" stroke="#DCEEFF" stroke-width="18"/>
<path id="Stroke 24" d="M126.942 185.36H76.2443" stroke="#DCEEFF" stroke-width="18"/>
<path id="Stroke 26" d="M129.335 219.774H73.8519" stroke="#DCEEFF" stroke-width="18"/>
<path id="Stroke 28" d="M133.409 250.824H69.7779" stroke="#DCEEFF" stroke-width="18"/>
<path id="Fill 30_3" fill-rule="evenodd" clip-rule="evenodd" d="M101.206 233.805H115.691C116.405 233.805 116.984 233.226 116.984 232.511V218.929C116.984 218.214 116.405 217.635 115.691 217.635H99.9124V232.511C99.9124 233.226 100.491 233.805 101.206 233.805" fill="#ECF6FF"/>
<path id="Fill 32_3" fill-rule="evenodd" clip-rule="evenodd" d="M116.984 231.047H99.9123V226.765H116.984V231.047Z" fill="#DCEEFF"/>
<path id="Fill 34_2" fill-rule="evenodd" clip-rule="evenodd" d="M98.6516 217.636C99.3475 217.636 99.9126 218.199 99.9126 218.897V217.636H98.6516Z" fill="#ECF6FF"/>
<path id="Fill 35_2" fill-rule="evenodd" clip-rule="evenodd" d="M91.4086 201.039H105.894C106.608 201.039 107.187 200.46 107.187 199.746V184.61C107.187 183.896 106.608 183.317 105.894 183.317H90.1155V199.746C90.1155 200.46 90.6945 201.039 91.4086 201.039" fill="#ECF6FF"/>
<path id="Fill 36_2" fill-rule="evenodd" clip-rule="evenodd" d="M107.187 198.017H90.115V196.055H107.187V198.017Z" fill="#DCEEFF"/>
<path id="Fill 37_2" fill-rule="evenodd" clip-rule="evenodd" d="M107.187 194.139H90.115V192.178H107.187V194.139Z" fill="#DCEEFF"/>
<path id="Fill 38_2" fill-rule="evenodd" clip-rule="evenodd" d="M88.8547 183.318C89.5504 183.318 90.1157 183.935 90.1157 184.7V183.318H88.8547Z" fill="#ECF6FF"/>
</g>
</g>
<g id="Background Object / Pluteus / 2">
<g id="Group 21">
<path id="Fill 1_3" fill-rule="evenodd" clip-rule="evenodd" d="M418.13 64.5938C417.399 70.7305 412.175 75.4915 405.841 75.4915C399.506 75.4915 394.283 70.7305 393.552 64.5938H418.13Z" fill="#ECF6FF"/>
<g id="Group 5">
<path id="Fill 3_3" fill-rule="evenodd" clip-rule="evenodd" d="M370.551 57.1348C369.82 63.2715 364.596 68.0325 358.262 68.0325C351.927 68.0325 346.704 63.2715 345.973 57.1348H370.551Z" fill="#ECF6FF"/>
</g>
<path id="Fill 6_2" fill-rule="evenodd" clip-rule="evenodd" d="M370.551 64.5938C369.82 70.7305 364.596 75.4915 358.262 75.4915C351.927 75.4915 346.704 70.7305 345.973 64.5938H370.551Z" fill="#ECF6FF"/>
<path id="Fill 8_3" fill-rule="evenodd" clip-rule="evenodd" d="M378.263 66.322H388.297L385.595 75.2098H380.965L378.263 66.322Z" fill="#DCEEFF"/>
<path id="Fill 10_4" fill-rule="evenodd" clip-rule="evenodd" d="M329.634 66.322H339.669L336.967 75.2098H332.336L329.634 66.322Z" fill="#DCEEFF"/>
<path id="Fill 12_3" fill-rule="evenodd" clip-rule="evenodd" d="M378.263 60.5183H388.297L385.595 69.4063H380.965L378.263 60.5183Z" fill="#DCEEFF"/>
<path id="Fill 14_3" fill-rule="evenodd" clip-rule="evenodd" d="M321.347 77.3269H410.283V73.5911H321.347V77.3269Z" fill="#DCEEFF"/>
<path id="Fill 16_3" fill-rule="evenodd" clip-rule="evenodd" d="M410.283 77.3269H424.914V73.5911H410.283V77.3269Z" fill="#CCE3FF"/>
<path id="Fill 17_2" fill-rule="evenodd" clip-rule="evenodd" d="M343.023 77.3269L349.968 88.223V77.3269H343.023Z" fill="#B6D4FF"/>
<path id="Fill 18_2" fill-rule="evenodd" clip-rule="evenodd" d="M339.179 77.3269L346.124 88.223H349.968L343.023 77.3269H339.179Z" fill="#CCE3FF"/>
<path id="Fill 19_2" fill-rule="evenodd" clip-rule="evenodd" d="M393.961 77.3269L400.907 88.223V77.3269H393.961Z" fill="#B6D4FF"/>
<path id="Fill 20_2" fill-rule="evenodd" clip-rule="evenodd" d="M390.118 77.3269L397.063 88.223H400.907L393.962 77.3269H390.118Z" fill="#CCE3FF"/>
</g>
</g>
<g id="Background Object / Picture / 6">
<g id="Group 8">
<path id="Fill 1_4" fill-rule="evenodd" clip-rule="evenodd" d="M182.524 58.0887H202.521V34.7791H182.524V58.0887Z" fill="#DCEEFF"/>
<path id="Stroke 2" fill-rule="evenodd" clip-rule="evenodd" d="M182.524 58.0887H202.521V34.7791H182.524V58.0887Z" stroke="#DCEEFF" stroke-width="5"/>
<path id="Fill 4" fill-rule="evenodd" clip-rule="evenodd" d="M181.141 58.0887H201.51V34.7791H181.141V58.0887Z" fill="white"/>
<path id="Stroke 5_3" fill-rule="evenodd" clip-rule="evenodd" d="M181.141 58.0887H201.51V34.7791H181.141V58.0887Z" stroke="#DCEEFF" stroke-width="5"/>
<path id="Fill 7_4" fill-rule="evenodd" clip-rule="evenodd" d="M185.962 52.0231H195.75V40.802H185.962V52.0231Z" fill="#CCE3FF"/>
</g>
</g>
<g id="Background Object / Picture / 2">
<g id="Group 8_2">
<path id="Fill 1_5" fill-rule="evenodd" clip-rule="evenodd" d="M207.808 76.6945H240.712V33.9907H207.808V76.6945Z" fill="#DCEEFF"/>
<path id="Stroke 2_2" fill-rule="evenodd" clip-rule="evenodd" d="M207.808 76.6945H240.712V33.9907H207.808V76.6945Z" stroke="#DCEEFF" stroke-width="5"/>
<path id="Fill 4_2" fill-rule="evenodd" clip-rule="evenodd" d="M206.098 76.6945H238.364V33.9907H206.098V76.6945Z" fill="white"/>
<path id="Stroke 5_4" fill-rule="evenodd" clip-rule="evenodd" d="M206.098 76.6945H238.364V33.9907H206.098V76.6945Z" stroke="#DCEEFF" stroke-width="5"/>
<path id="Fill 7_5" fill-rule="evenodd" clip-rule="evenodd" d="M212.816 68.6319H230.16V41.9753H212.816V68.6319Z" fill="#DCEEFF"/>
</g>
</g>
</g>
<g id="Person / Woman / 6">
<g id="Girl / Head / 1">
<g id="Group 21_2">
<g id="Hair color">
<path id="Hair" d="M176.121 97.6148C176.121 99.6139 175.914 101.566 175.517 103.449C172.829 116.275 161.454 120.651 147.828 120.651C132.205 120.651 119.537 113.24 119.537 97.6148C119.537 81.9892 132.205 69.3242 147.828 69.3242C158.57 69.3242 167.914 75.3086 172.706 84.1276C174.883 88.1364 176.121 92.7311 176.121 97.6148Z" fill="#393954"/>
<mask id="mask0_5_18" style="mask-type:alpha" maskUnits="userSpaceOnUse" x="119" y="69" width="58" height="52">
<path id="Hair_2" d="M176.121 97.6148C176.121 99.6139 175.914 101.566 175.517 103.449C172.829 116.275 161.454 120.651 147.828 120.651C132.205 120.651 119.537 113.24 119.537 97.6148C119.537 81.9892 132.205 69.3242 147.828 69.3242C158.57 69.3242 167.914 75.3086 172.706 84.1276C174.883 88.1364 176.121 92.7311 176.121 97.6148Z" fill="white"/>
</mask>
<g mask="url(#mask0_5_18)">
</g>
</g>
<path id="Fill 4_3" fill-rule="evenodd" clip-rule="evenodd" d="M152.679 116.437C152.679 116.437 149.282 116.538 147.834 115.747L152.499 118.675L152.679 116.437Z" fill="#CF3E83"/>
<g id="Face color">
<path id="Face" d="M151.544 94.9629C154.852 97.8088 159.749 100.455 165.497 102.254C165.131 106.149 163.916 112.861 160.251 115.299C158.519 116.451 155.366 116.593 152.68 116.438L152.064 124.067L144.079 120.94C144.079 120.94 146.072 111.668 145.005 109.963C143.572 107.668 139.738 106.928 139.733 103.755C139.732 102.816 140.281 101.189 142.309 101.185C145.032 101.181 144.644 104.443 144.644 104.443C147.149 105.417 149.702 98.7439 151.544 94.9629V94.9629Z" fill="#FFCDA0"/>
</g>
<path id="Fill 9_3" fill-rule="evenodd" clip-rule="evenodd" d="M160.064 104.437L162.008 109.15L159.752 109.105L160.064 104.437Z" fill="#2437A8"/>
<path id="Fill 11_3" fill-rule="evenodd" clip-rule="evenodd" d="M157.994 104.641C157.946 105.583 157.392 106.316 156.757 106.28C156.123 106.243 155.647 105.45 155.696 104.509C155.744 103.567 156.298 102.834 156.933 102.87C157.567 102.907 158.043 103.7 157.994 104.641Z" fill="#1D1D23"/>
<path id="Fill 13_2" fill-rule="evenodd" clip-rule="evenodd" d="M163.954 104.491C163.905 105.432 163.352 106.166 162.717 106.129C162.082 106.093 161.607 105.3 161.656 104.359C161.704 103.417 162.258 102.683 162.893 102.72C163.527 102.757 164.003 103.549 163.954 104.491Z" fill="#1D1D23"/>
<path id="Stroke 15" d="M159.199 111.362C159.199 111.362 157.729 111.836 156.257 110.199" stroke="#24242B" stroke-width="3"/>
<path id="Fill 17_3" opacity="0.399019" fill-rule="evenodd" clip-rule="evenodd" d="M152.674 116.437C152.674 116.437 149.277 116.538 147.829 115.747L152.493 118.675L152.674 116.437Z" fill="black"/>
</g>
</g>
<g id="Girl / Body / 2">
<g id="Group 39_2">
<g id="Skin color">
<path id="Skin" fill-rule="evenodd" clip-rule="evenodd" d="M156.672 125.067C155.092 122.393 152.976 120.898 152.976 120.898L143.306 120.431C143.306 120.431 144.13 122.554 145.002 125.284C146.725 130.679 150.814 131.892 154.377 131.886C157.704 131.881 158.835 128.725 156.672 125.067ZM180.493 140.743C180.32 139.044 180.252 137.011 180.792 136.283C181.782 134.947 186.681 130.908 186.681 130.908L186.942 134.278L188.101 130.321C188.101 130.321 189.385 130.702 190.628 131.352C191.524 131.821 192.383 132.457 192.922 132.856C193.05 132.951 193.161 133.032 193.249 133.095C193.907 133.563 191.993 140.766 190.628 142.062C189.691 142.952 186.928 143.642 185.288 143.987C182.157 149.044 173.811 161.68 169.2 160.637C164.41 159.555 159.966 142.81 159.966 142.81L168.045 138.875L171.563 149.717L180.493 140.743ZM125.592 177.438L127.558 182.467C127.558 182.467 127.857 183.762 128.024 185.292L128.046 185.496C128.198 186.909 128.3 187.857 129.268 190.049C129.974 191.649 127.689 191.171 127.041 190.277C126.802 189.947 126.605 189.252 126.4 188.528C126.033 187.231 125.641 185.845 124.935 186.325C123.835 187.072 123.503 190.875 123.749 194.466C123.788 195.03 123.396 195.491 123.116 195.653C122.662 195.916 121.999 193.694 121.999 193.694C121.999 193.694 121.761 194.475 121.037 194.149C120.781 194.033 120.018 192.521 120.018 192.521C120.018 192.521 119.428 191.776 119.117 190.944C118.569 189.475 118.121 186.749 118.226 185.948C118.476 184.06 119.037 180.873 119.774 179.108C119.339 174.572 117.67 156.36 118.591 152.9C119.644 148.942 121.709 143.578 121.709 143.578L129.632 148.238L126.236 155.489L125.592 177.438Z" fill="#FFCDA0"/>
</g>
<path id="Path" fill-rule="evenodd" clip-rule="evenodd" d="M190.78 131.454C190.051 131.036 189.356 130.723 189.016 130.802C188.421 130.941 189.51 132.503 190.305 133.531L190.296 133.57C189.013 134.086 187.332 134.852 187.062 135.412C186.873 135.803 187.61 135.931 188.524 135.948C187.683 136.351 186.949 136.787 186.779 137.141C186.56 137.594 187.584 137.694 188.684 137.678C187.712 138.122 186.802 138.626 186.609 139.025C186.363 139.535 187.688 139.598 188.928 139.551L188.609 140.943C188.512 141.37 188.123 141.667 187.685 141.647L182.93 141.439C182.364 141.415 181.959 140.883 182.085 140.331L185.455 125.604C185.552 125.177 185.941 124.881 186.378 124.9L191.134 125.108C191.7 125.133 192.105 125.664 191.979 126.217L190.78 131.454Z" fill="#020101"/>
<g id="Phone color">
<path id="Phone" d="M191.749 132.052C190.74 131.393 189.508 130.688 189.016 130.802C188.415 130.942 189.529 132.53 190.326 133.558C189.039 134.074 187.334 134.847 187.061 135.412C186.872 135.803 187.61 135.931 188.523 135.949C187.683 136.352 186.949 136.787 186.778 137.141C186.56 137.594 187.583 137.694 188.684 137.678C187.712 138.122 186.801 138.626 186.608 139.025C186.283 139.7 188.712 139.591 190.049 139.483L189.704 140.991C189.606 141.418 189.218 141.714 188.78 141.695L184.025 141.487C183.459 141.463 183.054 140.931 183.18 140.379L186.549 125.652C186.647 125.225 187.036 124.929 187.473 124.948L192.229 125.156C192.795 125.181 193.199 125.713 193.073 126.265L191.749 132.052Z" fill="#5E93D1"/>
</g>
<path id="Fill 20_3" fill-rule="evenodd" clip-rule="evenodd" d="M187.776 126.899C187.665 127.382 187.38 127.725 187.14 127.665C186.9 127.604 186.795 127.164 186.905 126.682C187.016 126.199 187.301 125.856 187.541 125.917C187.781 125.977 187.887 126.417 187.776 126.899Z" fill="#020101"/>
<path id="Fill 22_2" fill-rule="evenodd" clip-rule="evenodd" d="M187.22 129.397C187.109 129.879 186.824 130.222 186.584 130.162C186.343 130.102 186.239 129.662 186.349 129.179C186.46 128.696 186.745 128.354 186.985 128.414C187.225 128.474 187.33 128.914 187.22 129.397Z" fill="#020101"/>
<g id="T-shirt color">
<path id="T-Shirt" d="M146.494 120.585L143.307 120.431C143.307 120.431 144.13 122.554 145.002 125.283C146.726 130.679 150.814 131.892 154.377 131.886C157.705 131.881 158.835 128.725 156.672 125.067C155.28 122.712 153.473 121.271 153.062 120.961C157.264 121.245 159.88 121.773 162.303 124.045C166.917 128.372 170.652 136.349 172.188 144.23L163.758 147.992L160.755 159.595L138.692 159.258C138.692 159.258 138.885 157.133 138.409 154.062C137.79 150.045 135.552 147.048 135.552 147.048L133.333 150.421L119.532 142.285C124.05 134.046 130.353 125.551 134.555 122.847C137.523 120.937 140.241 120.457 142.897 120.431C144.105 120.419 145.317 120.502 146.494 120.585Z" fill="#5E93D1"/>
</g>
<path id="Stroke 31" opacity="0.202962" d="M160.854 159.796C161.696 149.093 167.267 146.567 163.064 134.563" stroke="black" stroke-width="3"/>
<path id="Stroke 35" opacity="0.202055" d="M152.976 120.898C152.976 120.898 155.092 122.393 156.672 125.067C158.835 128.725 157.704 131.881 154.376 131.886C150.814 131.892 146.725 130.679 145.002 125.284C144.13 122.554 143.306 120.431 143.306 120.431" stroke="black" stroke-width="3"/>
<path id="Stroke 37" opacity="0.202962" d="M141.219 139.555L136.1 147.311" stroke="black" stroke-width="3"/>
</g>
</g>
<g id="Girl / Legs / 5">
<g id="Group 17_2">
<g id="Shoes">
<path id="Shoes_2" fill-rule="evenodd" clip-rule="evenodd" d="M144.668 302.171L138.275 302.491C138.275 302.491 133.445 303.679 130.109 310.241H145.351L144.668 302.171ZM191.397 310.316C186.874 305.625 174.842 302.471 174.842 302.471L170.333 302.333L169.744 310.355L191.397 310.316Z" fill="#0D0B6D"/>
</g>
<g id="Skin color_2">
<path id="Skin_2" fill-rule="evenodd" clip-rule="evenodd" d="M135.446 306.71C139.129 306.637 141.651 304.652 142.959 303.281L144.46 303.556L149.648 223.151L132.92 230.901L139.286 301.855C138.222 302.57 132.093 306.777 135.446 306.71ZM185.564 306.423L176.939 302.68C176.444 299.394 174.351 285.097 172.419 265.89C170.687 248.658 169.178 232.886 169.178 232.886L154.79 233.557L170.524 303.396H172.233C174.971 304.793 180.278 307.002 185.564 306.423Z" fill="#FFCDA0"/>
</g>
<g id="Skirt color">
<path id="Skirt" d="M139.056 158.906C139.056 158.906 134.597 161.038 130.717 172.61C125.524 188.099 124.003 235.013 124.003 235.013H174.004L161.118 159.242L139.056 158.906Z" fill="#2F2F3D"/>
</g>
</g>
</g>
</g>
<g id="Person / Robot / 2">
<g id="Robot / Legs / 3">
<g id="Group 13">
<g id="Legs color">
<path id="Legs" fill-rule="evenodd" clip-rule="evenodd" d="M318.747 227.525H322.903V212.777C322.903 210.579 324.68 208.797 326.871 208.797H339.68C341.871 208.797 343.648 210.579 343.648 212.777V227.118H347.302C348.599 227.118 349.651 228.173 349.651 229.473V277.315C349.651 278.616 348.599 279.671 347.302 279.671H339.873C338.576 279.671 337.524 278.616 337.524 277.315C337.524 276.015 338.576 274.96 339.873 274.96H344.953V264.655C343.561 262.523 341.811 261.253 339.91 261.253C335.372 261.253 331.694 268.487 331.694 277.412C331.694 286.336 335.372 293.571 339.91 293.571C344.059 293.571 347.491 287.519 348.046 279.658C348.998 279.357 349.687 278.465 349.687 277.412V250.567C353.932 256.559 356.698 266.35 356.698 277.412C356.698 295.648 349.181 310.432 339.909 310.432C339.686 310.432 339.464 310.424 339.244 310.407H326.863C326.643 310.424 326.421 310.432 326.198 310.432C316.925 310.432 309.409 295.648 309.409 277.412C309.409 266.369 312.165 256.593 316.398 250.598V229.88C316.398 228.579 317.449 227.525 318.747 227.525ZM322.903 235.024V232.236H321.096V245.944C322.704 244.936 324.419 244.392 326.198 244.392L326.25 244.392H339.857L339.909 244.392C341.667 244.392 343.361 244.923 344.953 245.908V231.829H343.648V235.024C343.648 237.222 341.871 239.004 339.68 239.004H326.871C324.68 239.004 322.903 237.222 322.903 235.024Z" fill="#6CA1FF"/>
</g>
<path id="Path_2" fill-rule="evenodd" clip-rule="evenodd" d="M348.005 279.563C347.783 279.633 347.547 279.671 347.302 279.671H339.873C338.576 279.671 337.524 278.616 337.524 277.315C337.524 276.014 338.576 274.96 339.873 274.96H344.953V264.606C343.554 262.437 341.788 261.142 339.869 261.142C335.331 261.142 331.653 268.376 331.653 277.301C331.653 286.225 335.331 293.46 339.869 293.46C344.016 293.46 347.445 287.417 348.005 279.563L348.005 279.563Z" fill="#19141E"/>
<path id="Fill 10_5" fill-rule="evenodd" clip-rule="evenodd" d="M343.717 224.016H322.972V216.892H343.717V224.016Z" fill="#19141E"/>
<g id="Overlay">
<path id="Shape" opacity="0.395764" fill-rule="evenodd" clip-rule="evenodd" d="M320.938 245.965C321.009 245.917 321.08 245.87 321.152 245.822V232.352H323.029V227.641H318.803C317.506 227.641 316.454 228.696 316.454 229.997C316.417 239.037 316.398 245.835 316.398 250.389C316.527 250.219 316.657 250.052 316.789 249.889C316.889 249.751 316.986 249.616 317.075 249.519C317.099 249.494 317.121 249.47 317.143 249.446C312.422 255.29 309.285 265.63 309.285 277.412C309.285 295.648 316.801 310.432 326.074 310.432C326.296 310.432 326.518 310.423 326.739 310.407H339.119C330.156 309.719 322.997 295.21 322.997 277.412C322.997 259.209 330.485 244.447 339.733 244.392L326.126 244.392C326.108 244.392 326.091 244.392 326.074 244.392C324.282 244.392 322.557 244.943 320.938 245.965ZM318.192 248.25C318.066 248.381 317.941 248.516 317.817 248.654C317.928 248.525 318.046 248.395 318.192 248.25ZM344.953 274.96H339.873C338.576 274.96 337.524 276.014 337.524 277.315C337.524 278.616 338.576 279.671 339.873 279.671H347.302C348.599 279.671 349.651 278.616 349.651 277.315V229.473C349.651 228.173 348.599 227.118 347.302 227.118H339.873C338.576 227.118 337.524 228.173 337.524 229.473C337.524 230.774 338.576 231.829 339.873 231.829H344.953V274.96Z" fill="black"/>
</g>
</g>
</g>
<g id="Robot / Body / 1">
<g id="Group 25">
<path id="Stroke 1_3" d="M294.814 209.209L300.927 164.389" stroke="#19141E" stroke-width="27" stroke-linecap="round"/>
<path id="Fill 9_4" fill-rule="evenodd" clip-rule="evenodd" d="M351.736 203.677H313.615L307.802 197.419H357.549L351.736 203.677Z" fill="#19141E"/>
<path id="Stroke 11_2" d="M374.407 207.718L367.963 162.945" stroke="#19141E" stroke-width="27" stroke-linecap="round"/>
<g id="Body color">
<path id="Body" fill-rule="evenodd" clip-rule="evenodd" d="M297.749 188.454V175.817C297.448 175.759 297.147 175.687 296.847 175.601C291.289 174.012 288.073 168.218 289.662 162.661C291.251 157.103 297.044 153.886 302.602 155.475C302.832 155.541 303.058 155.614 303.28 155.694C304.742 154.911 306.41 154.465 308.177 154.465H357.174C358.765 154.465 360.276 154.827 361.629 155.471C363.226 154.484 365.108 153.915 367.123 153.915C372.903 153.915 377.589 158.601 377.589 164.381C377.589 170.001 373.16 174.586 367.601 174.836V188.454C367.601 194.189 362.909 198.881 357.174 198.881H308.177C302.441 198.881 297.749 194.189 297.749 188.454ZM284.726 266.539C284.63 264.088 285.445 261.811 286.869 260.037C282.658 257.674 279.803 253.156 279.821 248.01L279.916 219.663C279.941 212.113 286.139 205.956 293.689 205.982C301.239 206.007 307.396 212.205 307.371 219.755L307.275 248.102C307.26 252.711 304.944 256.8 301.425 259.281C303.015 260.881 304.065 263.026 304.244 265.412C304.271 265.772 304.278 266.129 304.267 266.481C304.216 268.079 302.17 268.68 301.258 267.367C300.219 265.869 298.789 264.965 297.244 265.026C294.281 265.142 292.018 268.773 292.19 273.136L292.191 273.163C292.246 274.463 290.879 275.334 289.743 274.701C286.864 273.096 284.866 270.074 284.726 266.539ZM377.109 260.336C381.898 258.478 385.468 253.992 385.874 248.551L387.983 220.283C388.545 212.754 382.844 206.134 375.315 205.572C367.786 205.01 361.166 210.711 360.604 218.24L358.495 246.508C358.142 251.236 360.258 255.604 363.745 258.34C361.333 260.053 359.715 262.828 359.604 265.958C359.591 266.319 359.598 266.676 359.623 267.027C359.737 268.622 361.805 269.141 362.664 267.793C363.643 266.256 365.037 265.296 366.583 265.296C369.548 265.296 371.952 268.834 371.952 273.201V273.228C371.949 274.53 373.349 275.346 374.46 274.668C377.273 272.951 379.15 269.853 379.15 266.315C379.15 264.063 378.389 261.989 377.109 260.336ZM341.652 203.645V209.687H323.699V203.645H341.652Z" fill="#6CA1FF"/>
</g>
<g id="Overlay_2">
<path id="Shape_2" opacity="0.394764" fill-rule="evenodd" clip-rule="evenodd" d="M359.604 265.958C359.591 266.319 359.598 266.676 359.623 267.027C359.737 268.622 361.805 269.141 362.664 267.794C363.643 266.256 365.037 265.296 366.583 265.296C369.548 265.296 371.952 268.835 371.952 273.201V273.229C371.949 274.53 373.349 275.346 374.46 274.668C377.273 272.951 379.15 269.853 379.15 266.315C379.15 260.817 374.61 256.378 369.071 256.545C363.969 256.698 359.785 260.856 359.604 265.958ZM311.619 175.909C311.619 182.608 316.495 188.166 322.891 189.233C322.984 189.217 323.073 189.201 323.165 189.183C329.428 188.011 334.167 182.513 334.167 175.909C334.167 169.304 329.428 163.806 323.165 162.634C323.073 162.616 322.984 162.6 322.891 162.584C316.495 163.651 311.619 169.21 311.619 175.909ZM333.014 175.927C333.014 180.249 329.511 183.752 325.189 183.752C320.867 183.752 317.363 180.249 317.363 175.927C317.363 171.605 320.867 168.101 325.189 168.101C329.511 168.101 333.014 171.605 333.014 175.927ZM377.644 164.381C377.644 158.601 372.958 153.915 367.178 153.915C361.398 153.915 356.712 158.601 356.712 164.381C356.712 170.161 361.398 174.847 367.178 174.847C372.958 174.847 377.644 170.161 377.644 164.381ZM375.119 162.441C375.119 165.245 372.846 167.518 370.042 167.518C367.237 167.518 364.964 165.245 364.964 162.441C364.964 159.637 367.237 157.364 370.042 157.364C372.846 157.364 375.119 159.637 375.119 162.441ZM303.299 155.722C303.077 155.642 302.851 155.569 302.62 155.503C297.063 153.914 291.269 157.131 289.68 162.688C288.091 168.246 291.308 174.04 296.866 175.629C297.166 175.715 297.467 175.786 297.768 175.845V164.92C297.768 160.952 300.015 157.483 303.299 155.722ZM286.869 259.986C285.445 261.76 284.63 264.036 284.727 266.488C284.866 270.023 286.864 273.045 289.743 274.65C290.879 275.283 292.246 274.412 292.192 273.112C292.191 273.103 292.191 273.094 292.19 273.084C292.019 268.722 294.281 265.091 297.245 264.974C298.789 264.914 300.219 265.818 301.259 267.315C302.17 268.629 304.216 268.028 304.267 266.43C304.279 266.078 304.271 265.721 304.244 265.361C304.065 262.975 303.016 260.83 301.425 259.23C304.944 256.749 307.26 252.66 307.276 248.051L307.371 219.704C307.396 212.154 301.239 205.956 293.69 205.93C286.139 205.905 279.941 212.062 279.916 219.612L279.821 247.959C279.804 253.105 282.659 257.623 286.869 259.986ZM341.336 186.746C341.336 185.262 340.133 184.059 338.648 184.059C337.164 184.059 335.961 185.262 335.961 186.746C335.961 188.231 337.164 189.434 338.648 189.434C340.133 189.434 341.336 188.231 341.336 186.746ZM349.104 186.746C349.104 185.262 347.901 184.059 346.417 184.059C344.932 184.059 343.729 185.262 343.729 186.746C343.729 188.231 344.932 189.434 346.417 189.434C347.901 189.434 349.104 188.231 349.104 186.746ZM384.518 222.383C384.632 220.903 383.526 219.61 382.046 219.496C380.566 219.381 379.273 220.488 379.158 221.968C379.043 223.448 380.151 224.74 381.63 224.855C383.11 224.969 384.403 223.863 384.518 222.383ZM383.943 229.797C384.058 228.317 382.951 227.025 381.471 226.91C379.991 226.795 378.698 227.902 378.584 229.382C378.469 230.862 379.576 232.154 381.056 232.269C382.536 232.384 383.828 231.277 383.943 229.797ZM383.355 237.391C383.47 235.911 382.363 234.618 380.883 234.503C379.403 234.389 378.11 235.496 377.996 236.976C377.881 238.456 378.988 239.748 380.467 239.863C381.947 239.978 383.24 238.871 383.355 237.391ZM341.785 209.608V203.566H323.658V209.608H341.785Z" fill="black"/>
</g>
<path id="Path_3" fill-rule="evenodd" clip-rule="evenodd" d="M322.955 189.25C316.558 188.184 311.682 182.625 311.682 175.926C311.682 169.227 316.558 163.668 322.955 162.602C322.23 162.481 321.484 162.418 320.724 162.418C313.264 162.418 307.216 168.465 307.216 175.926C307.216 183.387 313.264 189.434 320.724 189.434C321.484 189.434 322.23 189.371 322.955 189.25Z" fill="#19141E"/>
</g>
</g>
<g id="Robot / Head / 3">
<g id="Group 15">
<path id="Stroke 1_4" d="M340.018 121.451C340.018 121.451 335.43 124.485 334.926 129.734" stroke="#19141E" stroke-width="5" stroke-linecap="round"/>
<g id="Face color_2">
<path id="Face_2" fill-rule="evenodd" clip-rule="evenodd" d="M340.452 123.724C338.923 123.724 337.683 122.485 337.683 120.956C337.683 119.427 338.923 118.187 340.452 118.187C341.981 118.187 343.22 119.427 343.22 120.956C343.22 122.485 341.981 123.724 340.452 123.724ZM353.64 143.525H339.748V154.526H331.773V143.525H318.612C315.596 143.525 313.128 141.057 313.128 138.041V134.344C313.128 131.328 315.596 128.86 318.612 128.86H353.64C356.656 128.86 359.124 131.328 359.124 134.344V138.041C359.124 141.057 356.656 143.525 353.64 143.525Z" fill="#6CA1FF"/>
</g>
<g id="Overlay_3">
<path id="Fill 5_3" opacity="0.399042" fill-rule="evenodd" clip-rule="evenodd" d="M339.749 154.526H331.773V143.492H339.749V154.526Z" fill="black"/>
</g>
<path id="Fill 7_6" opacity="0.400367" fill-rule="evenodd" clip-rule="evenodd" d="M339.749 150.957L331.773 148.33V143.448H339.749V150.957Z" fill="black"/>
<path id="Fill 9_5" fill-rule="evenodd" clip-rule="evenodd" d="M353.64 143.525C356.656 143.525 359.124 141.057 359.124 138.041V134.344C359.124 131.328 356.656 128.86 353.64 128.86C350.624 128.86 348.156 131.328 348.156 134.344V138.041C348.156 141.057 350.624 143.525 353.64 143.525Z" fill="#19141E"/>
<path id="Fill 10_6" fill-rule="evenodd" clip-rule="evenodd" d="M345.039 136.193C345.039 138.515 343.156 140.397 340.834 140.397C338.512 140.397 336.629 138.515 336.629 136.193C336.629 133.87 338.512 131.988 340.834 131.988C343.156 131.988 345.039 133.87 345.039 136.193Z" fill="white"/>
<path id="Fill 11_4" fill-rule="evenodd" clip-rule="evenodd" d="M342.221 135.602C342.221 136.668 341.356 137.533 340.29 137.533C339.223 137.533 338.358 136.668 338.358 135.602C338.358 134.535 339.223 133.67 340.29 133.67C341.356 133.67 342.221 134.535 342.221 135.602Z" fill="#19141E"/>
<path id="Fill 12_4" fill-rule="evenodd" clip-rule="evenodd" d="M324.535 136.193C324.535 138.515 322.652 140.397 320.33 140.397C318.008 140.397 316.125 138.515 316.125 136.193C316.125 133.87 318.008 131.988 320.33 131.988C322.652 131.988 324.535 133.87 324.535 136.193Z" fill="white"/>
<path id="Fill 13_3" fill-rule="evenodd" clip-rule="evenodd" d="M321.717 135.602C321.717 136.668 320.852 137.533 319.785 137.533C318.718 137.533 317.853 136.668 317.853 135.602C317.853 134.535 318.718 133.67 319.785 133.67C320.852 133.67 321.717 134.535 321.717 135.602Z" fill="#19141E"/>
<path id="Fill 14_4" fill-rule="evenodd" clip-rule="evenodd" d="M331.543 133.311L327.782 136.164L331.543 139.075" fill="#19141E"/>
</g>
</g>
</g>
</g>
</svg>
