<svg width="17" height="18" viewBox="0 0 17 18" fill="none" xmlns="http://www.w3.org/2000/svg">
<path d="M16.8471 5.79205C16.8077 4.89988 16.6635 4.28653 16.4568 3.75504C16.2436 3.19089 15.9156 2.6858 15.4858 2.26592C15.0659 1.83951 14.5575 1.50816 13.9999 1.29829C13.4653 1.09161 12.8552 0.947338 11.963 0.908002C11.0642 0.865335 10.7788 0.855469 8.49916 0.855469C6.21947 0.855469 5.93413 0.865335 5.03863 0.904671C4.14646 0.944006 3.53311 1.08841 3.00175 1.29495C2.43747 1.50816 1.93238 1.83617 1.5125 2.26592C1.08609 2.6858 0.754871 3.19422 0.544867 3.75184C0.338194 4.28653 0.19392 4.89655 0.154584 5.78872C0.111917 6.68755 0.102051 6.97289 0.102051 9.25258C0.102051 11.5323 0.111917 11.8176 0.151253 12.7131C0.190588 13.6053 0.334991 14.2186 0.541664 14.7501C0.754871 15.3143 1.08609 15.8194 1.5125 16.2392C1.93238 16.6657 2.4408 16.997 2.99842 17.2069C3.53311 17.4135 4.14313 17.5578 5.03543 17.5972C5.9308 17.6366 6.21627 17.6464 8.49595 17.6464C10.7756 17.6464 11.061 17.6366 11.9565 17.5972C12.8486 17.5578 13.462 17.4135 13.9934 17.2069C15.1218 16.7706 16.014 15.8784 16.4502 14.7501C16.6568 14.2154 16.8012 13.6053 16.8405 12.7131C16.8799 11.8176 16.8897 11.5323 16.8897 9.25258C16.8897 6.97289 16.8864 6.68755 16.8471 5.79205ZM15.335 12.6475C15.2989 13.4675 15.1611 13.9104 15.0463 14.2056C14.7642 14.9371 14.1836 15.5176 13.4521 15.7998C13.1569 15.9146 12.7109 16.0523 11.8941 16.0883C11.0084 16.1278 10.7428 16.1375 8.50249 16.1375C6.26214 16.1375 5.9932 16.1278 5.11077 16.0883C4.29074 16.0523 3.84792 15.9146 3.55271 15.7998C3.18869 15.6652 2.85735 15.452 2.58841 15.1732C2.3096 14.9009 2.09639 14.5729 1.96185 14.2089C1.84705 13.9137 1.70931 13.4675 1.67331 12.6508C1.63384 11.7652 1.6241 11.4995 1.6241 9.25911C1.6241 7.01876 1.63384 6.74982 1.67331 5.86752C1.70931 5.04749 1.84705 4.60467 1.96185 4.30946C2.09639 3.94532 2.3096 3.6141 2.59174 3.34503C2.86389 3.06622 3.1919 2.85301 3.55604 2.7186C3.85125 2.6038 4.2974 2.46606 5.1141 2.42993C5.99973 2.39059 6.26547 2.38073 8.50569 2.38073C10.7494 2.38073 11.015 2.39059 11.8974 2.42993C12.7174 2.46606 13.1603 2.6038 13.4555 2.7186C13.8195 2.85301 14.1508 3.06622 14.4198 3.34503C14.6986 3.61731 14.9118 3.94532 15.0463 4.30946C15.1611 4.60467 15.2989 5.05069 15.335 5.86752C15.3743 6.75315 15.3842 7.01876 15.3842 9.25911C15.3842 11.4995 15.3743 11.7619 15.335 12.6475Z" fill="#828282"/>
<path d="M8.49915 4.93896C6.11786 4.93896 4.18579 6.8709 4.18579 9.25232C4.18579 11.6337 6.11786 13.5657 8.49915 13.5657C10.8806 13.5657 12.8125 11.6337 12.8125 9.25232C12.8125 6.8709 10.8806 4.93896 8.49915 4.93896ZM8.49915 12.0503C6.95429 12.0503 5.70118 10.7973 5.70118 9.25232C5.70118 7.70734 6.95429 6.45436 8.49915 6.45436C10.0441 6.45436 11.2971 7.70734 11.2971 9.25232C11.2971 10.7973 10.0441 12.0503 8.49915 12.0503Z" fill="#828282"/>
<path d="M13.9901 4.76869C13.9901 5.32477 13.5393 5.77566 12.983 5.77566C12.427 5.77566 11.9761 5.32477 11.9761 4.76869C11.9761 4.21248 12.427 3.76172 12.983 3.76172C13.5393 3.76172 13.9901 4.21248 13.9901 4.76869Z" fill="#828282"/>
</svg>
