<svg width="150" height="21" viewBox="0 0 150 21" fill="none" xmlns="http://www.w3.org/2000/svg">
<g clip-path="url(#clip0_6_377)">
<path d="M21.5163 8.01284C21.3797 7.59025 21.0049 7.2901 20.5614 7.25014L14.5378 6.70319L12.156 1.12814C11.9803 0.719556 11.5803 0.455078 11.1359 0.455078C10.6915 0.455078 10.2916 0.719556 10.1159 1.12909L7.73403 6.70319L1.70948 7.25014C1.26682 7.29106 0.892954 7.59025 0.75554 8.01284C0.618126 8.43543 0.745031 8.89894 1.07989 9.19113L5.63301 13.1842L4.2904 19.0985C4.19216 19.5333 4.36094 19.9828 4.72175 20.2436C4.91569 20.3837 5.14259 20.4551 5.3714 20.4551C5.56869 20.4551 5.76438 20.4019 5.94001 20.2968L11.1359 17.1914L16.33 20.2968C16.71 20.5255 17.1892 20.5046 17.5492 20.2436C17.9101 19.982 18.0788 19.5324 17.9805 19.0985L16.6379 13.1842L21.191 9.19192C21.5259 8.89894 21.6537 8.43623 21.5163 8.01284Z" fill="#F2C94C"/>
<path d="M53.3862 8.01284C53.2496 7.59025 52.8748 7.2901 52.4313 7.25014L46.4077 6.70319L44.0258 1.12814C43.8502 0.719556 43.4502 0.455078 43.0058 0.455078C42.5614 0.455078 42.1614 0.719556 41.9858 1.12909L39.6039 6.70319L33.5793 7.25014C33.1367 7.29106 32.7628 7.59025 32.6254 8.01284C32.488 8.43543 32.6149 8.89894 32.9498 9.19113L37.5029 13.1842L36.1603 19.0985C36.062 19.5333 36.2308 19.9828 36.5916 20.2436C36.7856 20.3837 37.0125 20.4551 37.2413 20.4551C37.4386 20.4551 37.6343 20.4019 37.8099 20.2968L43.0058 17.1914L48.1998 20.2968C48.5799 20.5255 49.059 20.5046 49.419 20.2436C49.78 19.982 49.9486 19.5324 49.8504 19.0985L48.5078 13.1842L53.0609 9.19192C53.3958 8.89894 53.5236 8.43623 53.3862 8.01284Z" fill="#F2C94C"/>
<path d="M85.2561 8.01284C85.1195 7.59025 84.7446 7.2901 84.3012 7.25014L78.2776 6.70319L75.8957 1.12814C75.7201 0.719556 75.3201 0.455078 74.8757 0.455078C74.4313 0.455078 74.0313 0.719556 73.8557 1.12909L71.4738 6.70319L65.4492 7.25014C65.0066 7.29106 64.6327 7.59025 64.4953 8.01284C64.3579 8.43543 64.4848 8.89894 64.8196 9.19113L69.3728 13.1842L68.0301 19.0985C67.9319 19.5333 68.1007 19.9828 68.4615 20.2436C68.6554 20.3837 68.8823 20.4551 69.1111 20.4551C69.3084 20.4551 69.5041 20.4019 69.6798 20.2968L74.8757 17.1914L80.0697 20.2968C80.4498 20.5255 80.9289 20.5046 81.2889 20.2436C81.6499 19.982 81.8185 19.5324 81.7203 19.0985L80.3777 13.1842L84.9308 9.19192C85.2656 8.89894 85.3935 8.43623 85.2561 8.01284Z" fill="#F2C94C"/>
<path d="M117.126 8.01284C116.989 7.59025 116.615 7.2901 116.171 7.25014L110.147 6.70319L107.766 1.12814C107.59 0.719556 107.19 0.455078 106.746 0.455078C106.301 0.455078 105.901 0.719556 105.726 1.12909L103.344 6.70319L97.3191 7.25014C96.8764 7.29106 96.5026 7.59025 96.3652 8.01284C96.2277 8.43543 96.3547 8.89894 96.6895 9.19113L101.243 13.1842L99.9 19.0985C99.8018 19.5333 99.9706 19.9828 100.331 20.2436C100.525 20.3837 100.752 20.4551 100.981 20.4551C101.178 20.4551 101.374 20.4019 101.55 20.2968L106.746 17.1914L111.94 20.2968C112.32 20.5255 112.799 20.5046 113.159 20.2436C113.52 19.982 113.688 19.5324 113.59 19.0985L112.248 13.1842L116.801 9.19192C117.136 8.89894 117.263 8.43623 117.126 8.01284Z" fill="#F2C94C"/>
<path d="M148.996 8.01284C148.859 7.59025 148.484 7.2901 148.041 7.25014L142.017 6.70319L139.635 1.12814C139.46 0.719556 139.06 0.455078 138.615 0.455078C138.171 0.455078 137.771 0.719556 137.595 1.12909L135.214 6.70319L129.189 7.25014C128.746 7.29106 128.372 7.59025 128.235 8.01284C128.098 8.43543 128.225 8.89894 128.559 9.19113L133.113 13.1842L131.77 19.0985C131.672 19.5333 131.84 19.9828 132.201 20.2436C132.395 20.3837 132.622 20.4551 132.851 20.4551C133.048 20.4551 133.244 20.4019 133.419 20.2968L138.615 17.1914L143.809 20.2968C144.19 20.5255 144.669 20.5046 145.029 20.2436C145.39 19.982 145.558 19.5324 145.46 19.0985L144.117 13.1842L148.671 9.19192C149.005 8.89894 149.133 8.43623 148.996 8.01284Z" fill="#F2C94C"/>
</g>
<defs>
<clipPath id="clip0_6_377">
<rect width="148.349" height="20" fill="white" transform="translate(0.700928 0.455078)"/>
</clipPath>
</defs>
</svg>
