<svg width="269" height="203" viewBox="0 0 269 203" fill="none" xmlns="http://www.w3.org/2000/svg">
<path fill-rule="evenodd" clip-rule="evenodd" d="M109.338 38.6171H52.78C52.78 38.6171 58.1083 30.8462 62.4887 30.7246C67.7166 30.5796 70.0706 36.3282 75.0908 36.3282C80.1122 36.3282 83.4741 22.2668 92.7682 22.2668C102.69 22.2668 109.338 38.6171 109.338 38.6171Z" fill="#ECF6FF"/>
<path fill-rule="evenodd" clip-rule="evenodd" d="M135.58 111.548C134.97 109.721 131.626 110.03 131.626 104.937C131.625 97.2689 142.186 98.1441 142.809 92.3662C143.431 86.5884 136.645 86.7265 136.435 81.8531C136.225 76.9797 141.385 66.924 149.214 66.924C155.388 66.924 150.275 74.683 155.257 78.1528C160.239 81.6226 165.93 77.1774 168.746 82.6336C172.625 90.1494 162.706 99.1757 163.684 104.937C164.663 110.699 170.478 109.337 170.656 115.667C170.834 121.998 162.387 123.112 163.183 128.541C163.684 131.963 169.03 130.82 169.311 137.568C169.548 143.281 151.18 150.35 137.383 138.724C123.585 127.099 137.908 118.519 135.58 111.548Z" fill="#CCE3FF"/>
<path d="M150.787 97.7096V153.856" stroke="#ECF6FF" stroke-width="8" stroke-linecap="square"/>
<path d="M151.076 135.726L158.291 128.51" stroke="#ECF6FF" stroke-width="8" stroke-linecap="square"/>
<path d="M151.172 115.175L154.84 111.507" stroke="#ECF6FF" stroke-width="8" stroke-linecap="square"/>
<path d="M150.402 123.34L144.648 117.587" stroke="#ECF6FF" stroke-width="8" stroke-linecap="square"/>
<path d="M150.534 105.577L147.739 102.782" stroke="#ECF6FF" stroke-width="8" stroke-linecap="square"/>
<path fill-rule="evenodd" clip-rule="evenodd" d="M78.7283 119.245C78.7283 130.285 71.5237 136.444 62.1399 136.444C52.7559 136.444 45.5513 130.285 45.5513 119.245C45.5513 96.0015 56.1391 69.2051 62.1399 69.2051C68.1406 69.2051 78.7283 96.0015 78.7283 119.245Z" fill="#CCE3FF"/>
<path d="M62.1397 102.825V153.779" stroke="#ECF6FF" stroke-width="8" stroke-linecap="square"/>
<path d="M62.3381 129.818L68.2097 123.947" stroke="#ECF6FF" stroke-width="8" stroke-linecap="square"/>
<path d="M61.6486 118.631L56.844 113.827" stroke="#ECF6FF" stroke-width="8" stroke-linecap="square"/>
<path d="M62.429 111.105L66.0968 107.438" stroke="#ECF6FF" stroke-width="8" stroke-linecap="square"/>
<path fill-rule="evenodd" clip-rule="evenodd" d="M138.33 114.237C138.33 126.916 128.061 137.194 115.394 137.194C102.727 137.194 92.4578 126.916 92.4578 114.237C92.4578 101.558 102.727 91.2797 115.394 91.2797C128.061 91.2797 138.33 101.558 138.33 114.237Z" fill="#ECF6FF"/>
<path d="M115.394 107.602V154.558" stroke="#B6D4FF" stroke-width="8"/>
<path d="M115.394 129.374L120.5 124.264" stroke="#B6D4FF" stroke-width="8"/>
<path d="M115.586 114.034L118.216 111.403" stroke="#B6D4FF" stroke-width="8"/>
<path d="M115.394 121.75L110.5 116.852" stroke="#B6D4FF" stroke-width="8"/>
<path fill-rule="evenodd" clip-rule="evenodd" d="M193.787 29.6508H192.255C191.518 29.6508 190.92 30.2482 190.92 30.9853V141.473H195.121V30.9853C195.121 30.2482 194.524 29.6508 193.787 29.6508Z" fill="#D7EBFF"/>
<path fill-rule="evenodd" clip-rule="evenodd" d="M189.66 151.636H196.381V140.241H189.66V151.636Z" fill="#CCE3FF"/>
<path fill-rule="evenodd" clip-rule="evenodd" d="M187.835 178.727H198.205V145.425H187.835V178.727Z" fill="#D7EBFF"/>
<path fill-rule="evenodd" clip-rule="evenodd" d="M197.343 174.315H188.698C186.951 174.315 185.535 175.732 185.535 177.479V178.869H200.506V177.479C200.506 175.732 199.09 174.315 197.343 174.315Z" fill="#CCE3FF"/>
<path fill-rule="evenodd" clip-rule="evenodd" d="M198.204 145.112H187.836C186.977 145.112 186.28 145.808 186.28 146.668V146.859C186.28 147.719 186.977 148.415 187.836 148.415H198.204C199.064 148.415 199.76 147.719 199.76 146.859V146.668C199.76 145.808 199.064 145.112 198.204 145.112Z" fill="#CCE3FF"/>
<path fill-rule="evenodd" clip-rule="evenodd" d="M193.021 23.7123C191.476 23.7123 190.224 24.9645 190.224 26.5092V26.8539C190.224 28.3986 191.476 29.6508 193.021 29.6508C194.566 29.6508 195.818 28.3986 195.818 26.8539V26.5092C195.818 24.9645 194.566 23.7123 193.021 23.7123Z" fill="#CCE3FF"/>
<path fill-rule="evenodd" clip-rule="evenodd" d="M197.155 56.3267H188.886C188.026 56.3267 187.33 57.0232 187.33 57.8826V58.0742C187.33 58.9337 188.026 59.6302 188.886 59.6302H197.155C198.014 59.6302 198.711 58.9337 198.711 58.0742V57.8826C198.711 57.0232 198.014 56.3267 197.155 56.3267Z" fill="#CCE3FF"/>
<path fill-rule="evenodd" clip-rule="evenodd" d="M196.026 59.6302H190.014C189.45 59.6302 188.993 60.0876 188.993 60.6518V60.7778C188.993 61.3418 189.45 61.7992 190.014 61.7992H196.026C196.591 61.7992 197.048 61.3418 197.048 60.7778V60.6518C197.048 60.0876 196.591 59.6302 196.026 59.6302Z" fill="#CCE3FF"/>
<path fill-rule="evenodd" clip-rule="evenodd" d="M200.961 34.437L196.419 56.3265H189.624L185.08 34.437H200.961Z" fill="#ECF6FF"/>
<path fill-rule="evenodd" clip-rule="evenodd" d="M202.34 35.5978L200.348 31.6798H185.692L183.701 35.5978H202.34Z" fill="#CCE3FF"/>
<path d="M100.165 78.6334L100.027 73.8642C100.027 73.8642 105.83 74.3257 107.071 73.6816C107.071 73.6816 108.588 65.875 106.779 61.5518L106.742 61.3835L94.4966 59.9528L93.7348 66.8858C93.3223 65.6708 89.9935 64.3777 89.1036 66.1178C87.1751 69.8883 94.0703 72.4271 94.0703 72.4271L93.3703 78.6908" fill="#FFCDA0"/>
<path opacity="0.400274" fill-rule="evenodd" clip-rule="evenodd" d="M100.027 73.8642L96.1143 73.0262L100.008 75.6537L100.027 73.8642Z" fill="black"/>
<path fill-rule="evenodd" clip-rule="evenodd" d="M103.254 66.0707L104.607 69.3724L102.986 69.393L103.254 66.0707Z" fill="#2437A8"/>
<path fill-rule="evenodd" clip-rule="evenodd" d="M101.713 67.009C101.794 67.4536 101.498 67.879 101.053 67.9595C100.607 68.04 100.181 67.7447 100.101 67.3002C100.02 66.8556 100.316 66.43 100.761 66.3495C101.206 66.2692 101.632 66.5643 101.713 67.009Z" fill="#0D0B6D"/>
<path fill-rule="evenodd" clip-rule="evenodd" d="M105.966 67.009C106.046 67.4536 105.75 67.879 105.305 67.9595C104.86 68.04 104.434 67.7447 104.354 67.3002C104.273 66.8556 104.569 66.43 105.014 66.3495C105.459 66.2692 105.885 66.5643 105.966 67.009Z" fill="#0D0B6D"/>
<path fill-rule="evenodd" clip-rule="evenodd" d="M101.573 70.3276C101.573 70.3276 102.14 71.2449 103.261 71.1672L101.573 70.3276Z" fill="white"/>
<path d="M101.573 70.3276C101.573 70.3276 102.14 71.2449 103.261 71.1672" stroke="#252535" stroke-width="4"/>
<path fill-rule="evenodd" clip-rule="evenodd" d="M93.8087 66.96C92.8943 66.0131 91.8991 65.6119 91.2954 65.4453L91.4106 63.0557L97.1631 62.0538C96.7667 64.7197 95.2269 66.1742 93.8087 66.96Z" fill="#EACB47"/>
<path fill-rule="evenodd" clip-rule="evenodd" d="M107.119 62.4845C106.6 61.9921 103.223 61.8396 99.1626 62.1519C98.2183 62.2245 97.3129 62.316 96.4757 62.4221C93.7081 62.7692 91.6717 63.263 91.3403 63.6973C90.9726 58.2709 94.3002 55.0391 98.6569 54.7384C101.515 54.5409 104.107 55.6549 105.659 57.976C106.453 59.1656 106.975 60.6733 107.119 62.4845Z" fill="#393954"/>
<path fill-rule="evenodd" clip-rule="evenodd" d="M107.184 62.5916H107.182C107.177 62.5539 107.154 62.5176 107.118 62.4841C106.6 61.9918 103.222 61.8392 99.162 62.1515C98.2175 62.2242 97.3123 62.3157 96.4751 62.4217C97.666 61.2917 99.8444 59.5051 102.414 58.7033C103.513 58.3605 104.628 58.1107 105.658 57.9756C108.16 57.6445 110.167 57.9844 110.267 59.2814C110.397 60.9692 107.615 62.3825 107.184 62.5916Z" fill="#161629"/>
<path fill-rule="evenodd" clip-rule="evenodd" d="M71.8243 164.347L76.1087 160.421L74.6204 156.45L65.4507 163.253L72.8786 176.209C72.8786 176.209 73.1173 172.989 72.729 169.423C72.4607 166.959 71.8243 164.347 71.8243 164.347ZM112.806 173.031L111.828 169.88L107.685 170.098L111.133 178.754L124.377 171.087C120.447 169.898 112.806 173.031 112.806 173.031Z" fill="#0D0B6D"/>
<path fill-rule="evenodd" clip-rule="evenodd" d="M75.029 161.422L74.5581 156.447L69.28 160.438L71.8244 164.348L75.029 161.422ZM112 170.412L107.904 170.781L109.416 174.444L112.806 173.031L112 170.412Z" fill="#E576C6"/>
<path d="M91.1872 123.689L85.7471 105.997H99.7083L107.057 105.997C107.071 110.325 106.561 117.453 103.863 125.569L112.429 165.915C112.536 166.422 112.356 166.928 111.99 167.255L113.292 171.877L107.971 173.426L106.704 169.119L106.671 169.13C105.917 169.379 105.104 168.961 104.872 168.205L96.409 140.679C95.4546 142.086 94.4146 143.49 93.2842 144.885C86.1272 153.714 81.6667 158.475 79.3726 160.766C78.5537 161.585 77.2797 161.625 76.4157 160.956L73.1442 163.65L69.896 159.181L73.129 156.519C72.6108 155.688 72.6961 154.608 73.3584 153.871C76.6547 150.192 85.9316 138.96 91.1872 123.689L91.1872 123.689Z" fill="#19141E"/>
<mask id="mask0_5_253" style="mask-type:alpha" maskUnits="userSpaceOnUse" x="69" y="105" width="45" height="69">
<path d="M91.1872 123.689L85.7471 105.997H99.7083L107.057 105.997C107.071 110.325 106.561 117.453 103.863 125.569L112.429 165.915C112.536 166.422 112.356 166.928 111.99 167.255L113.292 171.877L107.971 173.426L106.704 169.119L106.671 169.13C105.917 169.379 105.104 168.961 104.872 168.205L96.409 140.679C95.4546 142.086 94.4146 143.49 93.2842 144.885C86.1272 153.714 81.6667 158.475 79.3726 160.766C78.5537 161.585 77.2797 161.625 76.4157 160.956L73.1442 163.65L69.896 159.181L73.129 156.519C72.6108 155.688 72.6961 154.608 73.3584 153.871C76.6547 150.192 85.9316 138.96 91.1872 123.689L91.1872 123.689Z" fill="white"/>
</mask>
<g mask="url(#mask0_5_253)">
</g>
<path opacity="0.0987491" fill-rule="evenodd" clip-rule="evenodd" d="M106.704 169.119L106.671 169.13C105.916 169.379 105.104 168.961 104.872 168.205L96.4086 140.679L91.187 123.689L85.7468 105.997H99.708L103.863 125.569L112.429 165.915C112.535 166.422 112.355 166.928 111.99 167.255L113.291 171.877L107.971 173.426L106.704 169.119Z" fill="white"/>
<path d="M109.557 168.049L107.317 168.844L98.3256 137.67L92.7786 118.439L89.1909 105.998H93.7386L94.538 109.135L100.699 133.299L109.557 168.049Z" fill="#EFEFEF"/>
<path fill-rule="evenodd" clip-rule="evenodd" d="M92.2023 77.7317C92.5734 78.3802 94.2008 80.7774 98.0579 81.0041C101.783 81.2213 101.507 79.249 101.313 78.5894C101.226 78.5655 101.138 78.5414 101.05 78.517C100.231 78.2903 99.3593 78.0489 98.1653 77.9252C94.9054 77.5875 94.6496 77.5628 92.2023 77.7317ZM121.729 88.1884C119.956 91.6695 113.733 103.097 109.296 101.274C105.974 99.9093 101.997 88.595 101.997 88.595L108.462 84.7479L111.366 92.5232L117.297 86.0799C117.096 84.8031 116.935 83.1341 117.336 82.5458C118.02 81.5443 121.478 78.4588 121.478 78.4588L122.107 83.6866L122.217 83.2459C122.217 83.2214 122.223 83.1948 122.236 83.1661L122.239 83.1578L122.494 82.1377C122.387 82.0837 122.343 82.0069 122.39 81.9005C122.427 81.8141 122.509 81.7194 122.623 81.62L123.492 78.137C123.492 78.137 123.778 78.2639 124.196 78.454C124.869 78.3153 127.304 79.9712 127.341 79.9964L127.342 79.9967C127.838 80.317 126.658 85.6117 125.7 86.5953C125.018 87.2951 122.897 87.8984 121.729 88.1884ZM82.1267 111.798L82.5227 112.55C82.5227 112.55 82.8811 113.164 83.2564 114.236C83.395 114.632 83.4611 114.972 83.5304 115.327C83.6484 115.933 83.7756 116.586 84.2872 117.648C85.2084 119.559 83.5606 118.771 82.9698 117.937C82.7756 117.662 82.6725 117.348 82.5735 117.046C82.4374 116.63 82.3092 116.239 81.9631 116.011C81.9457 116.038 81.9265 116.067 81.9056 116.098C81.6851 116.427 81.2828 117.026 81.0495 119.545C81.0037 120.04 81.228 121.644 81.228 121.644C81.2283 121.68 81.229 121.719 81.2297 121.76C81.2386 122.269 81.2537 123.139 80.7472 123.28C80.6116 123.318 80.4351 123.168 80.4351 123.168C80.4351 123.168 80.4881 123.796 79.9289 123.92C79.709 123.969 79.2722 122.615 79.2722 122.615C79.2722 122.615 79.2057 123.303 78.788 123.379C78.67 123.401 77.2759 119.477 77.2759 119.477L77.3598 120.363L77.5448 121.271C77.5448 121.271 77.5299 121.76 77.1375 121.846C76.9816 121.88 76.6825 121.065 76.4022 120.107C75.9662 118.615 75.9751 117.494 76.1034 116.379C76.1345 116.108 76.1566 115.874 76.1769 115.659C76.2576 114.802 76.3097 114.247 76.789 112.927C76.8608 112.729 76.957 112.502 77.0645 112.269C76.7355 109.429 75.8083 101.115 75.9219 98.563C76.0596 95.4673 79.3395 88.5951 79.3395 88.5951L85.9985 92.3177L82.3282 99.0052L82.1267 111.798Z" fill="#FFCDA0"/>
<path fill-rule="evenodd" clip-rule="evenodd" d="M85.7979 106.077H107.161L107.944 92.8898L111.693 90.7047L109.066 84.6651L109.043 84.6695C108.934 84.4502 108.814 84.2224 108.682 83.986C107.052 81.0492 104.263 79.3931 101.312 78.5898C101.265 78.5768 101.245 78.5675 101.243 78.5706C101.238 78.5784 101.34 78.6645 101.369 78.9657C101.41 79.3867 101.277 79.9581 101.137 80.1318C100.807 80.5414 100.309 80.7739 100.109 80.8286C99.9081 80.8833 99.7493 80.9151 99.5719 80.9504C99.4476 80.9751 98.7408 81.0274 98.6187 81.0211C97.6128 80.9686 97.1197 80.922 96.4863 80.7716C96.2621 80.7183 96.0301 80.6576 95.7549 80.5419C95.7033 80.5202 95.6469 80.497 95.5863 80.4721C95.289 80.3499 94.893 80.1872 94.4908 79.9624C94.0656 79.7248 93.6322 79.4114 93.3184 79.0913C93.2881 79.0604 93.2586 79.0303 93.2299 79.0011C92.9005 78.6655 92.6758 78.4366 92.5201 78.207C92.4147 78.0516 92.375 77.9999 92.3516 77.9696C92.3375 77.9513 92.3294 77.9407 92.3163 77.9197C92.2818 77.8639 92.2521 77.8147 92.2436 77.7817C92.2344 77.7462 92.2672 77.7311 92.2659 77.7274C92.2652 77.7252 92.2506 77.7275 92.2026 77.7323C90.699 77.8808 89.083 78.2689 87.3208 79.0913C81.8703 81.6337 78.6848 88.0215 78.6848 88.0215L85.4397 93.0728L85.7979 106.077Z" fill="#3BC5E9"/>
<path opacity="0.200521" d="M85.4392 93.0718L87.1529 94.2314L91.272 89.4485" stroke="black" stroke-width="5"/>
<path d="M124.559 84.6176L124.261 86.0777H119.427L121.707 74.4534H126.541C126.415 75.0922 126.12 76.5967 125.655 78.9669L124.705 78.5277L124.409 78.4458L124.176 78.4589L124.075 78.5277V78.8101L125.108 80.2919L124.318 80.6353L123.102 81.2714L122.75 81.514L122.614 81.6397L122.503 81.7391L122.432 81.8243L122.39 81.9006L122.371 81.9996L122.39 82.0434L122.411 82.0771L122.441 82.1076L122.84 82.248L123.749 81.9996H124.648L123.449 82.248L122.658 82.7196L122.39 82.972L122.238 83.1575V83.3272L122.503 83.4462L124.176 83.2547L123.622 83.5553L123.255 83.7822L122.918 83.9553L122.658 84.2902V84.4554L122.75 84.5525L122.984 84.6764H123.34H124.058L124.559 84.6176Z" fill="#5E93D1"/>
<path fill-rule="evenodd" clip-rule="evenodd" d="M119.427 86.0777H118.627L120.907 74.4534H121.707L119.427 86.0777Z" fill="#020101"/>
<path fill-rule="evenodd" clip-rule="evenodd" d="M122.539 75.8032C122.472 76.1428 122.274 76.3902 122.096 76.3555C121.919 76.321 121.829 76.0177 121.896 75.6782C121.963 75.3385 122.161 75.0913 122.339 75.1258C122.516 75.1604 122.606 75.4637 122.539 75.8032Z" fill="#020101"/>
</svg>
